<?xml version="1.0" encoding="utf-8"?>
<!-- Generator: Adobe Illustrator 19.2.0, SVG Export Plug-In . SVG Version: 6.00 Build 0)  -->
<svg version="1.1" id="Слой_1" xmlns="http://www.w3.org/2000/svg" xmlns:xlink="http://www.w3.org/1999/xlink" x="0px" y="0px"
	 viewBox="0 0 125.4 78.4" style="enable-background:new 0 0 125.4 78.4;" xml:space="preserve">
<style type="text/css">
	.st0{fill:#1C3663;}
	.st1{fill:#FFFFFF;}
</style>
<g>
	<path class="st0" d="M125.4,74.2c0,2.3-1.9,4.2-4.2,4.2H4.2c-2.3,0-4.2-1.9-4.2-4.2v-70C0,1.9,1.9,0,4.2,0h117.1
		c2.3,0,4.2,1.9,4.2,4.2V74.2z"/>
	<g>
		<path class="st1" d="M60.6,34.4c-0.4,0-1,0.4-1.3,0.8c0,0-3,5.1-3.3,5.6c-0.2,0.3-0.3,0.1-0.3,0c0-0.1-0.9-5.6-0.9-5.6
			c-0.1-0.4-0.6-0.8-1.1-0.8l-1.9,0c-0.5,0-0.7,0.4-0.6,0.8c0,0,1.4,8.1,1.7,10c0.1,1.1,0,1.2,0,1.2L51,49.7
			c-0.3,0.4-0.1,0.8,0.3,0.8l2.2,0c0.4,0,1-0.4,1.3-0.8l8.3-14.1c0,0,0.8-1.2,0.1-1.2C62.6,34.4,60.6,34.4,60.6,34.4"/>
		<path class="st1" d="M34.4,37.3c-0.6,0.5-1.5,0.7-2.6,0.7h-0.5c-0.5,0-0.7-0.4-0.6-0.8l0.6-2.7c0.1-0.4,0.5-0.8,1-0.8l0.7,0
			c0.8,0,1.4,0.1,1.8,0.4c0.4,0.3,0.6,0.7,0.6,1.2C35.3,36.2,35,36.8,34.4,37.3 M38.9,33.1c-0.3-0.5-0.6-0.9-1.1-1.2
			c-0.5-0.3-1.1-0.5-1.8-0.7c-0.7-0.1-1.5-0.2-2.5-0.2l-4.4,0c-0.5,0-0.9,0.4-1,0.8l-2.9,12.8c-0.1,0.4,0.2,0.8,0.6,0.8h2.1
			c0.5,0,0.9-0.4,1-0.8l0.7-3.1c0.1-0.4,0.5-0.8,1-0.8h0.6c2.6,0,4.5-0.5,6-1.6c1.4-1,2.1-2.4,2.1-4.1
			C39.3,34.3,39.2,33.6,38.9,33.1"/>
		<path class="st1" d="M49,35c-0.8-0.4-2-0.7-3.7-0.7c-0.8,0-1.7,0.1-2.5,0.2c-0.6,0.1-0.7,0.1-1.1,0.2c-0.8,0.2-0.9,1-0.9,1l-0.3,1
			c-0.1,0.7,0.2,0.6,0.4,0.6c0.3-0.1,0.5-0.2,1.2-0.4c0.7-0.2,1.4-0.3,2-0.3c0.8,0,1.5,0.1,1.9,0.3c0.4,0.2,0.6,0.5,0.6,0.9
			c0,0.1,0,0.2,0,0.3c0,0.1-0.1,0.2-0.3,0.2c-1.2,0.1-2,0.2-3.1,0.3c-1,0.1-1.9,0.4-2.7,0.7c-0.8,0.4-1.4,0.8-1.8,1.4
			c-0.4,0.6-0.6,1.3-0.6,2.2c0,0.8,0.3,1.5,0.9,2c0.6,0.5,1.3,0.8,2.2,0.8c0.6,0,1,0,1.3-0.1c0.3-0.1,0.7-0.2,1-0.3
			c0.3-0.1,0.6-0.3,0.9-0.5c0.3-0.2,0.5-0.3,0.8-0.5l0,0l-0.1,0.3c0,0,0,0,0,0l0,0c-0.1,0.4,0.2,0.7,0.6,0.8l0,0h0l0,0
			c0.3,0,1.2,0,1.6,0h0.3c0,0,0,0,0,0c0.4-0.1,0.8-0.4,0.9-0.8l1.5-6.6c0-0.2,0.1-0.3,0.1-0.5c0-0.2,0-0.4,0-0.5
			C50.1,36.1,49.7,35.4,49,35z M45.3,42.8c-0.3,0.2-0.5,0.3-0.8,0.4c-0.4,0.2-0.8,0.2-1.1,0.2c-0.5,0-0.9-0.1-1.2-0.2
			c-0.3-0.1-0.4-0.4-0.4-0.8c0-0.4,0.1-0.8,0.3-1c0.2-0.3,0.5-0.5,0.9-0.6c0.4-0.1,0.8-0.2,1.4-0.3c0.5-0.1,1.4-0.2,1.5-0.2
			c0.1,0,0.2-0.1,0.1,0.3c0,0.1-0.3,1.3-0.4,1.8C45.6,42.5,45.3,42.7,45.3,42.8z"/>
		<path class="st1" d="M86.9,35c-0.8-0.4-2-0.7-3.7-0.7c-0.8,0-1.7,0.1-2.5,0.2c-0.6,0.1-0.7,0.1-1.1,0.2c-0.8,0.2-0.9,1-0.9,1
			l-0.3,1c-0.1,0.7,0.2,0.6,0.4,0.6c0.3-0.1,0.5-0.2,1.2-0.4c0.7-0.2,1.4-0.3,2-0.3c0.8,0,1.5,0.1,1.9,0.3c0.4,0.2,0.6,0.5,0.6,0.9
			c0,0.1,0,0.2,0,0.3c0,0.1-0.1,0.2-0.3,0.2c-1.2,0.1-2.1,0.2-3.1,0.3c-1,0.1-1.9,0.4-2.7,0.7c-0.8,0.4-1.4,0.8-1.8,1.4
			C76.2,41.4,76,42.2,76,43c0,0.8,0.3,1.5,0.9,2c0.6,0.5,1.3,0.8,2.2,0.8c0.6,0,1,0,1.3-0.1c0.3-0.1,0.6-0.2,1-0.3
			c0.3-0.1,0.6-0.3,0.9-0.5c0.3-0.2,0.5-0.3,0.8-0.5l0,0L83,44.6c0,0,0,0,0,0l0,0c-0.1,0.4,0.2,0.7,0.6,0.8l0,0h0l0,0
			c0.3,0,1.2,0,1.6,0h0.3c0,0,0,0,0,0c0.4,0,0.8-0.4,0.9-0.8l1.5-6.6c0-0.2,0.1-0.3,0.1-0.5c0-0.2,0-0.4,0-0.5
			C88.1,36.1,87.7,35.4,86.9,35z M83.2,42.8c-0.3,0.2-0.5,0.3-0.8,0.4c-0.4,0.2-0.8,0.2-1.1,0.2c-0.5,0-0.9-0.1-1.2-0.2
			c-0.3-0.1-0.4-0.4-0.4-0.8c0-0.4,0.1-0.8,0.3-1c0.2-0.3,0.5-0.5,0.9-0.6c0.4-0.1,0.8-0.2,1.4-0.3c0.5-0.1,1.4-0.2,1.5-0.2
			c0.1,0,0.2-0.1,0.1,0.3c0,0.1-0.3,1.3-0.4,1.8C83.5,42.5,83.3,42.7,83.2,42.8z"/>
		<path class="st1" d="M72.3,37.4c-0.6,0.5-1.5,0.7-2.6,0.7h-0.5c-0.4,0-0.7-0.4-0.6-0.8l0.6-2.7c0.1-0.4,0.6-0.8,1-0.8l0.7,0
			c0.8,0,1.4,0.1,1.8,0.4c0.4,0.3,0.6,0.7,0.6,1.2C73.2,36.2,72.9,36.9,72.3,37.4 M76.8,33.2c-0.3-0.5-0.7-0.9-1.2-1.2
			c-0.5-0.3-1.1-0.5-1.8-0.7c-0.7-0.1-1.5-0.2-2.5-0.2l-4.4,0c-0.5,0-0.9,0.4-1,0.8l-2.9,12.8c-0.1,0.4,0.2,0.8,0.6,0.8l2.1,0
			c0.4,0,0.9-0.4,1-0.8l0.7-3.1c0.1-0.4,0.6-0.8,1-0.8h0.6c2.6,0,4.5-0.5,6-1.6c1.4-1.1,2.1-2.4,2.1-4.1
			C77.2,34.3,77.1,33.7,76.8,33.2"/>
		<g>
			<g>
				<path class="st1" d="M94.1,31.2h-1.9c0,0,0,0,0,0l0,0c-0.4,0-0.8,0.3-1,0.7c0,0,0,0,0,0.1c0,0,0,0.2-0.1,0.5l-2.6,11.7
					c-0.1,0.3-0.1,0.5-0.1,0.5l0,0c-0.1,0.4,0.2,0.7,0.6,0.8l0,0h1.9c0.4,0,0.8-0.3,1-0.7c0,0,0,0,0-0.1L94.7,32l0,0
					C94.8,31.5,94.5,31.2,94.1,31.2z"/>
			</g>
		</g>
		<g>
			<path class="st1" d="M96.9,33.8c-0.1,0-0.1,0-0.2,0c-0.1,0-0.1,0-0.2,0c-0.2,0-0.4-0.1-0.5-0.2c-0.1-0.1-0.2-0.3-0.2-0.5V32h-0.2
				v-0.3h0.2v-0.6h0.3v0.6h0.7V32h-0.7V33c0,0.1,0,0.2,0,0.2c0,0.1,0,0.1,0.1,0.2c0,0,0.1,0.1,0.1,0.1c0,0,0.1,0,0.2,0
				c0.1,0,0.1,0,0.2,0c0.1,0,0.1,0,0.1,0h0V33.8z"/>
			<path class="st1" d="M100.3,33.8h-0.3v-1.2c0-0.1,0-0.2,0-0.3c0-0.1,0-0.1-0.1-0.2c0-0.1-0.1-0.1-0.1-0.1c-0.1,0-0.1,0-0.2,0
				c-0.1,0-0.2,0-0.3,0.1c-0.1,0-0.2,0.1-0.3,0.2c0,0,0,0.1,0,0.1c0,0,0,0.1,0,0.1v1.3h-0.3v-1.2c0-0.1,0-0.2,0-0.3
				c0-0.1,0-0.1,0-0.2c0-0.1-0.1-0.1-0.1-0.1c-0.1,0-0.1,0-0.2,0c-0.1,0-0.2,0-0.3,0.1c-0.1,0-0.2,0.1-0.3,0.2v1.5h-0.3v-2h0.3V32
				c0.1-0.1,0.2-0.2,0.3-0.2c0.1,0,0.2-0.1,0.3-0.1c0.1,0,0.3,0,0.4,0.1c0.1,0.1,0.2,0.1,0.2,0.2c0.1-0.1,0.3-0.2,0.4-0.3
				c0.1-0.1,0.2-0.1,0.4-0.1c0.2,0,0.4,0.1,0.5,0.2c0.1,0.1,0.2,0.3,0.2,0.6V33.8z"/>
		</g>
	</g>
</g>
</svg>
