<svg xmlns="http://www.w3.org/2000/svg" version="1.1" class="footerIcon" viewBox="-1 -1 76.5 76.5" enable-background="new -1 -1 76.5 76.5" xml:space="preserve">
    <style>
    .footerIcon_outside {
        stroke: #70747f;
        stroke-widht: 1;
        fill: none;
        transition: .3s;
    }
    
    .footerIcon_inside {
        fill: #70747f;
        transition: .3s;
    }
    
    .footerIcon:hover .footerIcon_outside {
        fill: #434753;
        stroke: #434753;
    }
    
    .footerIcon:hover .footerIcon_inside {
        fill: #FFFFFF
    }
    </style>
    <switch>
        <g>
            <path class="footerIcon_outside" d="M36.8 0C16.5 0 0 16.5 0 36.8S16.5 73.5 36.8 73.5c20.3 0 36.8-16.5 36.8-36.7S57 0 36.8 0z" />
            <path class="footerIcon_inside" d="M54.6 34.2c0-0.8 0-3.6 0-4.6 0-1.3-1-1.4-1-1.4h-1v-4.4c0-0.2-0.1-0.4-0.3-0.4 -1-0.2-1.7-0.4-2.7-0.5v-2.6c0-0.2-0.3-0.4-0.5-0.5 -6.5-0.7-9.7 0.3-12.8 1.2 -3.5 1.1-6.9 2.1-15 0.7 -0.1 0-0.3 0-0.4 0.1 -0.1 0.1-0.2 0.2-0.2 0.4v3h-0.8c-2 0-4.2 2.4-4.2 4.2v20.8c0 1.9 2.2 4 4.2 4h33.7c0 0 1.1 0 1.1-1.5 0-1.1 0-1.5 0-2.9 0-1.4 1-1.5 1.4-1.9 0.4-0.4 0.6-0.9 0.6-1.6 0 0 0-7.1 0-8.9C56.6 35.4 54.6 36.2 54.6 34.2zM20.6 28.1h-1.2c-0.5 0-0.8-0.5-0.8-1s0.4-1 0.8-1h1.2V28.1zM23.6 24.8c-0.1 0.1 0 0.2 0 0.3v3h-0.4 -1.6v-5.5c8 1.3 11.5 0.3 14.9-0.8 2.9-0.9 6.1-1.8 12.1-1.2v2.1c-4-0.2-6.5 0.4-9.6 1 -4.2 0.9-8.6 1.8-15.1 0.9C23.8 24.6 23.7 24.7 23.6 24.8zM24.6 25.6c6 0.8 10.8-0.1 14.8-1 4.1-0.9 7.2-1.6 12.2-0.5v4h-27V25.6zM53.1 48.6c-3.5 0-6.4-2.9-6.4-6.4s2.9-6.4 6.4-6.4c0.4 0 0.7 0.3 0.7 0.7s-0.3 0.7-0.7 0.7c-2.8 0-5 2.3-5 5 0 2.8 2.3 5 5 5 0.4 0 0.7 0.3 0.7 0.7C53.8 48.3 53.5 48.6 53.1 48.6zM52.5 43.8c-1 0-1.8-0.8-1.8-1.7s0.8-1.7 1.8-1.7c1 0 1.8 0.8 1.8 1.7S53.5 43.8 52.5 43.8z" />
        </g>
    </switch>
</svg>