<svg xmlns="http://www.w3.org/2000/svg" version="1.1" class="footerIcon" viewBox="-1 -1 76.5 76.5" enable-background="new -1 -1 76.5 76.5" xml:space="preserve">
   <style>
    .footerIcon_outside {
        stroke: #70747f;
        stroke-widht: 1;
        fill: none;
        transition: .3s;
    }
    
   .footerIcon_inside {
        fill: #70747f;
        transition: .3s;
    }
    
    .footerIcon:hover .footerIcon_outside {
        fill: #434753;
                stroke: #434753;
    }
    
    .footerIcon:hover .footerIcon_inside {
        fill: #FFFFFF
    }
    </style>
  <switch>
    <g>
      <path class="footerIcon_outside" d="M36.8 0C16.5 0 0 16.5 0 36.8S16.5 73.5 36.8 73.5c20.3 0 36.8-16.5 36.8-36.7S57 0 36.8 0z"/>
      <g>
        <path class="footerIcon_inside" d="M37.3 39c-0.1-0.6-0.2-0.8-0.2-0.9 -0.5 0.2-1.9 2.3-2.3 5.1 -0.1 0.8-0.3 2.3 0.2 3.4C36.3 44.1 37.5 41.3 37.3 39zM46.2 31.9h11v-8h-11V31.9zM48.2 25.9h5v4h-5V25.9zM35.2 23.9v8h10v-8H35.2zM43.2 29.9h-6v-4h6V29.9zM34.2 23.9h-19v8h19V23.9zM31.2 29.9h-10v-4h10V29.9zM54.8 17.9H16.8c-0.9 0-1.6 1.1-1.6 2.1v2.9h19.4 10.9 11.8v-2.9C57.2 19 56.5 17.9 54.8 17.9zM34.6 32.9H15.2v14h6.5c1.5 0 1.5 0.2 1.5 1.8v6.2h32.1c1.7 0 1.9-0.9 1.9-1.5V32.9H45.4 34.6zM45.8 41.8c0.3-0.7 2-4.2 8.8-2.9 0.3 0.1 0.5 0.3 0.4 0.6 -0.1 0.3-0.3 0.5-0.6 0.4 -5.2-1-7 1.2-7.4 1.8 -0.2 0.3-0.3 0.5-0.3 0.7 1.6-1.4 1.8-1.2 2-1 0.4 0.4 0 0.9-0.9 1.9 -0.5 0.6-1 0.7-1.3 0.6 -0.4 0.4-0.9 0.9-1.4 1.4 -0.7 0.7-1.3 1.1-1.8 0.8 -0.6-0.3-0.5-1.3-0.2-2.6 0.1-0.5 0.3-1.4 0.2-1.8 -0.4 0.3-0.8 1.8-1 2.7 -0.3 1.4-0.6 2.6-1.3 2.9 -0.4 0.2-1.2 0.3-1.8 0.1 -0.1 0.2-0.3 0.2-0.4 0.2h15c0.3 0 0.5 0.2 0.5 0.5 0 0.3-0.2 0.5-0.5 0.5H34.3c-1.2 2-2.2 3.2-2.3 3.3 -0.1 0.1-0.2 0.3-0.4 0.3 -0.1 0-0.2 0-0.3-0.1 -0.2-0.2-0.2-0.8 0-1 0 0 0.8-1.6 1.8-2.6h-2.3c-0.3 0-0.5-0.2-0.5-0.5 0-0.3 0.2-0.5 0.5-0.5h3c0.2 0 0.4-0.3 0.6-0.6 -0.9-1.3-1-3.3-0.3-5.9 0.5-1.6 1.7-4.5 3.1-4.4 0.6 0.1 1 0.7 1.1 1.9 0.3 2.7-1.1 5.9-2.7 8.5 0.1 0 0.1 0.1 0.2 0.1 0.9 0.5 1.6 0.6 2.1 0.3 0.2-0.1 0.3-0.3 0.5-0.5 -0.2-0.5-0.3-1.3-0.2-2.4 0.1-1.4 0.2-2 0.8-2.1 0.5 0 0.7 0.4 0.9 1.5 0 0.2 0.1 1.6-0.3 2.8 0.2 0 0.5-0.1 0.9-0.3 0.3-0.2 0.6-1.5 0.8-2.3 0.4-1.7 0.9-3.4 2.1-3.5 0.3 0 0.5 0.1 0.7 0.3 0.4 0.5 0.3 1.4 0 2.8 -0.1 0.4-0.2 0.9-0.2 1.2 0.1-0.1 0.3-0.2 0.4-0.4 0.5-0.5 1-1 1.4-1.4C45.5 43 45.6 42.4 45.8 41.8zM21.8 47.9h-6l6.4 7.1v-6.4c0-0.3 0-0.6 0.1-0.7C22.2 48 22.1 47.9 21.8 47.9z"/>
      </g>
    </g>
  </switch>
</svg>