<?xml version="1.0" encoding="utf-8"?>
<!-- Generator: Adobe Illustrator 19.2.0, SVG Export Plug-In . SVG Version: 6.00 Build 0)  -->
<svg version="1.1" id="Слой_1" xmlns="http://www.w3.org/2000/svg" xmlns:xlink="http://www.w3.org/1999/xlink" x="0px" y="0px"
	 viewBox="0 0 25 25" style="enable-background:new 0 0 25 25;" xml:space="preserve">
<style type="text/css">
	.st0{fill:#707070;}
	.st1{fill:#BDA065;}
</style>
<g>
	<g>
		<g>
			<path class="st0" d="M23.8,11.8c-0.4-1.1-0.9-2.4-1.7-3.4c-0.6-0.7-1.7-1.4-2.7-1.2c0,0-0.1,0-0.2,0.1c0,0.2,0.1,0.5,0.1,0.7
				c0,0.7-0.1,1.4-0.4,2c-0.3,0.6-0.6,1.2-1.1,1.6c-0.5,0.5-1,0.8-1.6,1.1c-0.6,0.3-1.3,0.4-2,0.4c-0.7,0-1.4-0.1-2-0.4
				c-0.6-0.3-1.2-0.6-1.6-1.1c-0.5-0.5-0.8-1-1.1-1.6C9.4,9.9,9.3,9.7,9.3,9.6c-4,0.9-7.8,1.8-8,1.8c-0.2,0-0.4,0.1-0.6,0.2
				c-0.1,0.1-0.2,0.2-0.2,0.4v10c0,0.4,0.4,0.8,0.9,0.8l3.7,0.4L21.9,25c1.5,0.2,2.8-0.7,2.8-1.9c0-0.8-0.5-1.5-1.3-1.9
				c0.8-0.3,1.3-0.9,1.3-1.7c0-0.7-0.5-1.5-1.3-1.9C25.7,16.7,24.5,13.5,23.8,11.8L23.8,11.8z M18.9,23L2.5,21.3v-1.6l16.5,1.7
				c1.5,0.2,2.8,0.7,2.8,1.1C21.7,23,20.5,23.2,18.9,23L18.9,23z M18.9,19.8L2.5,18v-1.6l16.5,1.7c1.5,0.2,2.8,0.7,2.8,1.1
				C21.7,19.7,20.5,19.9,18.9,19.8L18.9,19.8z M18.9,16.5L2.5,14.8v-1.6l16.5,1.7c1.5,0.2,2.8,0.7,2.8,1.1
				C21.7,16.4,20.5,16.6,18.9,16.5L18.9,16.5z M18.9,16.5"/>
			<path class="st0" d="M10.6,8c0,0.4,0.1,0.8,0.2,1.2c0.5,1.4,1.8,2.4,3.3,2.4c2,0,3.5-1.6,3.5-3.5c0-0.1,0-0.3,0-0.4
				c-0.2-1.8-1.7-3.2-3.5-3.2c-0.2,0-0.4,0-0.5,0c-0.1-0.2-0.3-0.5-0.4-0.7c-0.1-0.2-0.3-0.5-0.5-0.7c-0.2-0.3-0.4-0.5-0.6-0.8
				c-0.4-0.5-0.8-0.9-1.3-1.3C10.4,0.6,10,0.3,9.4,0.1C9.2-0.1,8.8,0,8.7,0.3C8.5,0.5,8.6,0.9,8.9,1.1c0.2,0.1,0.5,0.2,0.7,0.4
				c0.1,0,0.1,0.1,0.2,0.1c0,0,0.1,0.1,0.1,0.1c0.1,0.1,0.2,0.1,0.3,0.2c0.2,0.2,0.5,0.4,0.7,0.6C11,2.7,11.2,3,11.4,3.2
				c0.1,0.1,0.1,0.1,0.2,0.2c0,0,0,0,0,0c0,0,0,0,0,0c0,0,0,0.1,0.1,0.1c0,0,0,0,0,0c0.1,0.1,0.2,0.3,0.3,0.4
				C12,4,12.1,4.1,12.1,4.2c0.1,0.2,0.2,0.4,0.3,0.5c0,0,0,0.1,0.1,0.1C11.4,5.5,10.6,6.7,10.6,8L10.6,8z M10.6,8"/>
		</g>
	</g>
	<g>
		<g>
			<path class="st1" d="M23.8,11.8c-0.4-1.1-0.9-2.4-1.7-3.4c-0.6-0.7-1.7-1.4-2.7-1.2c0,0-0.1,0-0.2,0.1c0,0.2,0.1,0.5,0.1,0.7
				c0,0.7-0.1,1.4-0.4,2c-0.3,0.6-0.6,1.2-1.1,1.6c-0.5,0.5-1,0.8-1.6,1.1c-0.6,0.3-1.3,0.4-2,0.4c-0.7,0-1.4-0.1-2-0.4
				c-0.6-0.3-1.2-0.6-1.6-1.1c-0.5-0.5-0.8-1-1.1-1.6C9.4,9.9,9.3,9.7,9.3,9.6c-4,0.9-7.8,1.8-8,1.8c-0.2,0-0.4,0.1-0.6,0.2
				c-0.1,0.1-0.2,0.2-0.2,0.4v10c0,0.4,0.4,0.8,0.9,0.8l3.7,0.4L21.9,25c1.5,0.2,2.8-0.7,2.8-1.9c0-0.8-0.5-1.5-1.3-1.9
				c0.8-0.3,1.3-0.9,1.3-1.7c0-0.7-0.5-1.5-1.3-1.9C25.7,16.7,24.5,13.5,23.8,11.8L23.8,11.8z M18.9,23L2.5,21.3v-1.6l16.5,1.7
				c1.5,0.2,2.8,0.7,2.8,1.1C21.7,23,20.5,23.2,18.9,23L18.9,23z M18.9,19.8L2.5,18v-1.6l16.5,1.7c1.5,0.2,2.8,0.7,2.8,1.1
				C21.7,19.7,20.5,19.9,18.9,19.8L18.9,19.8z M18.9,16.5L2.5,14.8v-1.6l16.5,1.7c1.5,0.2,2.8,0.7,2.8,1.1
				C21.7,16.4,20.5,16.6,18.9,16.5L18.9,16.5z M18.9,16.5"/>
			<path class="st1" d="M10.6,8c0,0.4,0.1,0.8,0.2,1.2c0.5,1.4,1.8,2.4,3.3,2.4c2,0,3.5-1.6,3.5-3.5c0-0.1,0-0.3,0-0.4
				c-0.2-1.8-1.7-3.2-3.5-3.2c-0.2,0-0.4,0-0.5,0c-0.1-0.2-0.3-0.5-0.4-0.7c-0.1-0.2-0.3-0.5-0.5-0.7c-0.2-0.3-0.4-0.5-0.6-0.8
				c-0.4-0.5-0.8-0.9-1.3-1.3C10.4,0.6,10,0.3,9.4,0.1C9.2-0.1,8.8,0,8.7,0.3C8.5,0.5,8.6,0.9,8.9,1.1c0.2,0.1,0.5,0.2,0.7,0.4
				c0.1,0,0.1,0.1,0.2,0.1c0,0,0.1,0.1,0.1,0.1c0.1,0.1,0.2,0.1,0.3,0.2c0.2,0.2,0.5,0.4,0.7,0.6C11,2.7,11.2,3,11.4,3.2
				c0.1,0.1,0.1,0.1,0.2,0.2c0,0,0,0,0,0c0,0,0,0,0,0c0,0,0,0.1,0.1,0.1c0,0,0,0,0,0c0.1,0.1,0.2,0.3,0.3,0.4
				C12,4,12.1,4.1,12.1,4.2c0.1,0.2,0.2,0.4,0.3,0.5c0,0,0,0.1,0.1,0.1C11.4,5.5,10.6,6.7,10.6,8L10.6,8z M10.6,8"/>
		</g>
	</g>
</g>
</svg>
