<?xml version="1.0" encoding="utf-8"?>
<!-- Generator: Adobe Illustrator 19.2.0, SVG Export Plug-In . SVG Version: 6.00 Build 0)  -->
<svg version="1.1" id="Слой_1" xmlns="http://www.w3.org/2000/svg" xmlns:xlink="http://www.w3.org/1999/xlink" x="0px" y="0px"
	 viewBox="0 0 1200 50" style="enable-background:new 0 0 1200 50;" xml:space="preserve">
<style type="text/css">
	.st0{fill:none;stroke:#2C932B;stroke-width:1.4734;}
</style>
<path class="st0" d="M0,20.3c6.9,5.9,15.8,9.5,25.6,9.5c9.5,0,18.2-3.4,25-9c6.8,5.6,15.5,9,25,9s18.2-3.4,25-9c6.8,5.6,15.5,9,25,9
	s18.2-3.4,25-9c6.8,5.6,15.5,9,25,9s18.2-3.4,25-9c6.8,5.6,15.5,9,25,9s18.2-3.4,25-9c6.8,5.6,15.5,9,25,9s18.2-3.4,25-9
	c6.8,5.6,15.5,9,25,9s18.2-3.4,25-9c6.8,5.6,15.5,9,25,9s18.2-3.4,25-9c6.8,5.6,15.5,9,25,9s18.2-3.4,25-9c6.8,5.6,15.5,9,25,9
	s18.2-3.4,25-9c6.8,5.6,15.5,9,25,9s18.2-3.4,25-9c6.8,5.6,15.5,9,25,9s18.2-3.4,25-9c6.8,5.6,15.5,9,25,9s18.2-3.4,25-9
	c6.8,5.6,15.5,9,25,9s18.2-3.4,25-9c6.8,5.6,15.5,9,25,9s18.2-3.4,25-9c6.8,5.6,15.5,9,25,9s18.2-3.4,25-9c6.8,5.6,15.5,9,25,9
	s18.2-3.4,25-9c6.8,5.6,15.5,9,25,9s18.2-3.4,25-9c6.8,5.6,15.5,9,25,9s18.2-3.4,25-9c6.8,5.6,15.5,9,25,9s18.2-3.4,25-9
	c6.8,5.6,15.5,9,25,9c9.5,0,18.2-3.4,25-9c6.8,5.6,15.5,9,25,9c9.5,0,18.2-3.4,25-9c6.8,5.6,15.5,9,25,9c9.5,0,18.2-3.4,25-9
	c6.8,5.6,15.5,9,25,9c9.8,0,18.7-3.6,25.6-9.5"/>
</svg>
