<?xml version="1.0" encoding="utf-8"?>
<!-- Generator: Adobe Illustrator 19.2.0, SVG Export Plug-In . SVG Version: 6.00 Build 0)  -->
<svg version="1.1" xmlns="http://www.w3.org/2000/svg" xmlns:xlink="http://www.w3.org/1999/xlink" x="0px" y="0px"
	 viewBox="0 0 147.1 68.1" style="enable-background:new 0 0 147.1 68.1;" xml:space="preserve">
<style type="text/css">
	.st0{fill:#E93842;}
	.st1{fill:#3FAC00;}
	.st2{fill:#642BB1;}
	.st3{font-family:'Gabriola';}
	.st4{font-size:14px;}
	.st5{fill:none;stroke:#FFFFFF;stroke-width:2;}
	.st6{fill:#66850C;}
</style>
<g id="Слой_1">
	<path class="st0" d="M71.8,23.2"/>
	<path class="st1" d="M93.4,55.1c-0.4,0-0.8,0-1.2,0l-5.6-0.2c-4.8-0.1-9.5-0.3-14.2-0.4l-11.6-0.3H60c-1.1,0-2.2-0.1-3-0.9
		c-1-1-1-2.3-1-3.4l0-0.5c-0.1-1.6-0.1-3.3-0.1-4.9c0-3,0-6.3,0.1-10.1l0-2.2c0-2,0.1-4,0.2-6c-0.9,0-1.8-0.1-2.5-0.8
		c-0.5-0.5-0.7-1.1-0.7-1.8c0.1-0.9,0.7-1.8,1.8-2.7c1.3-1.7,2.9-3.2,4.4-4.7l0.1-0.1c-0.3-2.8-0.2-5.7-0.1-8.6l0.1-2.1
		c0-0.9,0.1-2.3,1.9-2.7c1.3-0.3,2.6-0.3,3.9-0.3c0.6,0,1.2,0,1.7,0c0,0,0,0,0,0c0.9,0,1.7,0.7,1.7,1.6c0,0.6,0.2,2.7,0.3,3.1
		c1.7-1.5,3.3-3,5-4.5l0.4-0.3c1.3-1.2,2.7-2.4,4-2.4c0.6,0,1.2,0.2,1.6,0.7L80,1c1.4,1.1,2.7,2.4,4,3.6l1.1,1.1
		c1.9,1.8,3.8,3.7,5.7,5.5c3.9,3.8,7.7,7.7,11.4,11.5l0.1,0.1c0.6,0.3,1,0.9,1,1.7c0,1-0.7,1.9-1.7,2.2c-0.3,0.1-0.6,0.1-1,0.1
		c-0.5,0-1-0.1-1.5-0.1c-0.3,0-0.6-0.1-0.8-0.1c0.1,2.9-0.1,5.7-0.3,8.5c-0.2,4.2-0.5,8.5,0,12.6c0,0.3,0.1,0.6,0.1,0.9
		c0.3,1.8,0.8,4.9-2,6.1C95.1,55,94.1,55.1,93.4,55.1z M73.4,51.1c4.8,0.1,9.6,0.3,14.4,0.4l5.3,0.1c1.8,0,1.8-0.4,1.8-1
		c0-0.7-0.1-1.4-0.3-2.2c-0.1-0.6-0.2-1.1-0.3-1.7c-0.1-1.3-0.2-2.7-0.2-4c0-2.6,0.1-5.3,0.3-7.9c0.2-2.7,0.3-5.6,0.3-8.4l-0.5,0
		c-5.2,0.1-10.4,0.2-15.7,0.2l-1.3,0c-5.8,0-11.5-0.1-17-0.3l-0.9,0c0,1.9,0,3.7-0.1,5.5c0,1-0.1,2.1-0.1,3.1
		c-0.1,3.6-0.1,6.8,0,9.7c0,1.5,0.1,3,0.1,4.6l0,0.5c0,0.5,0,0.8,0.1,0.9c0.1,0.1,0.3,0.1,0.6,0.1l0.5,0L73.4,51.1z M58.8,23
		c1.7,0.1,3.4,0.1,5.2,0.1l0.9,0c4.1,0.1,8.1,0.2,12.2,0.2l1.4,0c3.7,0,7.4,0,11.1-0.1c1.9,0,3.9-0.1,5.8-0.1l0.5,0
		c0.6,0,1.3,0,1.9,0l0.2,0c-1.8-1.8-3.5-3.6-5.3-5.4l-1.3-1.2l0-0.1c-0.9-0.9-6.4-6.3-6.4-6.3l-2-1.9c-0.4-0.4-1.8-1.7-1.8-1.7
		c-1.1-1-2.1-2-3.1-3.1c-0.4,0.3-1.5,1.2-4.1,3.6l-0.8,0.7c-1.7,1.5-3.4,3.1-5.1,4.7l-0.5,0.4c-1.8,1.7-3.6,3.4-5.3,5.1L62,18.3
		c-0.6,0.5-1,1.1-1.5,1.6c-1,1.1-2,2.1-3.2,3.1c0,0-0.1,0.1-0.1,0.2c0.3,0,1.4-0.1,1.5-0.1H58.8z M62.6,6.1c0,0.3,0,0.7,0,1.1
		c0,0.3,0,0.6,0,0.8c0,0.9,0,1.9,0,2.9c0,0.7,0,1.4,0,2.2c1-1,2-1.9,3-2.8c-0.2-1.4-0.2-2.7-0.3-4.1l0-0.1c-0.9,0-1.8,0.1-2.6,0.2
		L62.6,6.1z"/>
	<text transform="matrix(1 0 0 1 38.5833 64.6139)" class="st2 st3 st4">уют вашего дома </text>
	<path class="st0" d="M71.8,3"/>
	<g>
		<g>
			<path class="st5" d="M30.9,37.4c0-1.3-0.5-3-1.5-5c-0.7-1.2-1.5-2.2-2.5-2.9c-1.9-1.6-4.4-2.4-7.6-2.4c-2.5,0.4-4.4,0.8-5.8,1.3
				c-2.3,1-4.7,2.5-7.3,4.3c-1.7,1.3-3.5,3.1-5.3,5.3v0.5c1.4,1.2,2.8,2.6,4.1,4.1h0.3c0.1,0,0.2-0.1,0.2-0.2v-0.3l-0.1-0.5
				c0.9-2.3,2.4-4.6,4.6-7c3.1-2.7,5.5-4.3,7.3-4.6h0.2c0.2,0,0.4,1.3,0.6,3.7c-0.1,0-0.1,0-0.1,0.1l0.1,0.5v0.1
				c0,6.2-0.5,11.6-1.4,16.3c0.1,0.5,0.3,0.7,0.6,0.7c0.2,0,0.5,0,0.8-0.1l0.2,0.1c0.8-0.1,1.6-0.3,2.4-0.6c1.2-0.3,3.1-1.4,5.6-3.3
				c1.1-1.2,1.7-1.8,1.7-1.8c1.9-3,2.8-5.2,2.8-6.7c0-0.2,0-0.3-0.1-0.4c0.1-0.1,0.1-0.2,0.1-0.3V37.4z M27.5,37.5
				c0,2.1-0.6,3.8-1.8,5.2c-1.3,1.3-2.8,2.3-4.4,2.9c0.2-1.5,0.4-2.7,0.4-3.4v-4.4c0-0.3,0-0.7,0.1-1.2c-0.3-3.5-0.6-5.7-1-6.5
				C20.2,30,20,29.9,20,29.8v-0.1c0.4-0.1,0.6-0.1,0.7-0.1l0.6,0.1c1.5,0.2,3.1,1.3,5,3.3c0.8,1.6,1.2,2.7,1.2,3.4V37.5z"/>
			<path class="st5" d="M42.5,33.7c-0.4-0.4-1.3-0.7-2.7-0.9c-0.9,0-1.8,0.1-2.6,0.4c-3.7,2-5.5,4.9-5.5,8.6c0,1.4,0.3,2.8,1,4.2
				c0.7,1,1.3,1.6,2,1.9c0,0.4,0.9,0.5,2.6,0.5c0.7,0,1.1-0.1,1.3-0.3c1.1-0.2,2.2-1,3.4-2.2c1.7-2.5,2.6-4.8,2.6-6.8v-0.6
				C44.7,36.7,44,35,42.5,33.7z M40.3,39.8c0,0.4-0.1,1-0.4,1.9l0.1,0.3v0.2c-0.3,1.1-0.8,1.8-1.3,2.3c0,0.3-0.7,0.6-2,0.8h-0.1
				c-0.4,0-0.9-0.2-1.4-0.7c-0.6-0.7-0.9-1.4-0.9-2.3c0.1-1.3,0.1-2.1,0.2-2.3c0.8-2.5,2-3.7,3.5-3.7c0.6,0.1,1,0.3,1.1,0.5
				c0.5,0,0.9,0.9,1.3,2.8V39.8z"/>
			<path class="st5" d="M54.2,32.8c0.4,0.1,0.6,0.1,0.7,0.2l0.2-0.1c1.1,0.4,2,1,2.5,1.9c0,0.3,0.1,0.4,0.2,0.4
				c1.2-1.1,2.1-1.7,2.8-1.8c0.3-0.1,1-0.2,2.1-0.3c1.9,0.2,3.1,1,3.4,2.3c0.4,0.9,0.7,1.7,0.8,2.5c0,3.7-0.7,7-2.2,10.1l-0.4,0.4
				h-0.5c-1-0.7-1.9-1.4-2.8-1.9l-0.3-0.8c0.5-0.6,1-2.1,1.6-4.3c0.2-0.7,0.3-1.5,0.3-2.5c0-1.1-0.3-1.7-0.8-1.7
				c-0.6,0-1.4,0.6-2.3,1.7c-0.6,0.9-1.3,2.2-1.8,4.1l-0.9,4.3c0,0.3-0.1,0.5-0.4,0.6h-0.6c-0.1,0-0.2,0-0.3-0.1
				c-0.2,0.1-0.5,0.2-0.8,0.2c-0.4-0.1-0.6-0.2-0.6-0.3c0.2-1.3,0.7-3.4,1.4-6.3l0.3-2.4l-0.1-0.3l0.1-0.5c-0.1-1.2-0.5-1.8-1.2-1.8
				c-0.7,0.2-1.3,0.8-2.1,1.8c-0.9,1.3-1.6,3.5-2.1,6.6v2.1c0,0.2,0.1,0.4,0.2,0.6c0,0.1-0.1,0.2-0.3,0.4c0.1,0.2,0.2,0.3,0.2,0.5
				c0,0.1-0.1,0.2-0.3,0.3h-0.5c-2.4-1.7-3.8-2.6-4.1-2.6l-0.2-0.3v-0.2c0.2-1.8,0.7-3.8,1.5-5.7c0.9-2.2,2.2-4,3.7-5.4
				C51.7,33.3,52.9,32.8,54.2,32.8z"/>
			<path class="st5" d="M99,19.6h0.3c1.3,0.4,1.9,0.8,1.9,1.3c-0.8,1.5-1.4,3.3-1.9,5.5c-1.3,5.3-1.9,9.1-1.9,11.2
				c-0.1,0-0.1,1.3-0.2,3.8c0,2,0.4,4.2,1.2,6.9v0.1l-0.3,0.2h-0.3c-0.1,0-1.6-1-4.4-3c-0.7-0.3-1.2-0.7-1.5-1.1v-2.2
				c0-1.3,0.6-4.7,1.7-10c1.2-4.3,2.6-8.1,4.2-11.5C98.1,20.3,98.5,19.9,99,19.6z"/>
			<path class="st5" d="M113.6,43.5c-1-2.9-1.5-5.4-1.5-7.6c0.1-1.3,0.1-2.3,0.2-3.1c-0.1-0.1-0.6-0.2-1.5-0.3
				c-0.4,0.1-0.8,0.2-1.3,0.2c-1.3,0-3.1,0.7-5.4,2c-0.7,0.6-1.2,0.9-1.3,0.9c-2.3,2.3-3.4,4.2-3.4,5.7v1.3c0,1.8,0.6,3.2,1.8,4.3
				c0.6,0.7,1.6,1.2,3,1.5h0.4c1.9,0,3.2-0.3,3.7-0.9h0.2c0.1,0.9,0.2,1.3,0.4,1.3c0.3,0,0.7-0.2,1.1-0.7c2.5-1.8,3.8-2.8,4.1-3.2
				V45C114.2,44.7,114,44.2,113.6,43.5z M109.5,35.3c-0.1,0.7-0.2,1.1-0.3,1.1c-0.4,2.3-0.6,3.5-0.7,3.8c0.1,0.9,0.1,1.4,0.1,1.6
				v0.1c-0.7,1.2-1.8,1.8-3.2,1.8c-1.4-0.2-2.1-0.8-2.1-2c0-2,0.6-3.6,1.9-4.6c0.9-0.9,2.2-1.6,3.9-2l0.4,0.1V35.3z"/>
			<path class="st5" d="M117.4,32.1h0.5c1.2,0.9,1.9,1.4,2,1.4c0.8-0.4,1.7-0.6,2.6-0.6h0.2c2.3,0,3.8,1.2,4.6,3.5
				c0.2,0.7,0.2,1.4,0.2,2.2v1.1c-0.7,4.4-1.3,7.2-2,8.4c-0.2,0.4-0.4,0.5-0.5,0.5h-0.3c-0.6-0.4-1.1-0.7-1.6-0.8l-0.2-0.2v-0.2
				c0.5-1.7,1-3.9,1.3-6.6l0.1-0.5c0-2-0.6-3-1.7-3h-0.2c-0.9,0.3-1.6,0.7-2.1,1.4c-0.6,0.6-1.1,1.8-1.6,3.5
				c-0.5,2.1-0.7,3.9-0.7,5.6c0,0.2-0.4,0.4-1.1,0.6c-0.1,0-0.1,0-0.1-0.1l-0.4,0.1h-0.5c-0.7,0-1-0.2-1-0.7c0-0.2-0.1-0.6-0.2-1.2
				c0-0.1,0-0.1,0.1-0.2c-0.1-0.8-0.1-1.3-0.2-1.4l0.1-0.2c0-0.2,0-0.5-0.1-0.9c0-3.1,0.5-6.3,1.4-9.8
				C116.8,32.8,117.2,32.2,117.4,32.1C117.3,32.1,117.4,32.1,117.4,32.1z"/>
			<path class="st5" d="M146,20.7c-0.9,0.3-1.5,0.6-1.8,0.9c-1,0.2-1.6,0.4-1.7,0.6c-0.3,0.8-0.6,1.5-1,2.3c-1.3,3.1-2.2,6-2.6,8.5
				c-0.4-0.1-0.8-0.2-1.1-0.2h-0.4c-1,0.1-1.6,0.2-1.9,0.3c-1.3,0.2-2.8,1.1-4.4,2.7c-1.7,2.3-2.5,4.2-2.5,5.8v1.4
				c0,1.9,0.7,3.3,2.2,4.3c0,0.3,1.3,0.7,3.8,1.1c1.1,0,2-0.3,2.8-0.9h0.2c0.1,1,0.3,1.4,0.5,1.4h0.3c0.1,0,0.2-0.1,0.2-0.2
				c0.8-0.3,1.2-0.5,1.2-0.7c0.9-0.6,1.5-1,1.8-1.4c1-0.4,1.4-1,1.4-1.7c-0.5-1.3-0.7-3.1-0.7-5.5v-1c0-0.3,0-0.7,0.1-1.4
				c-0.1,0-0.1,0-0.1-0.1c0.1,0,0.1,0,0.1-0.1v-0.2c0-2.4,0.4-5.2,1.3-8.5c0.5-1.8,1.4-4.2,2.7-7.2v-0.2L146,20.7z M138.2,35.6
				c-0.4,2.2-0.7,4.2-0.9,6c0,0.3-0.3,0.7-0.9,1.2c-0.4,0.4-1.2,0.6-2.3,0.6c-0.3,0-0.7-0.1-1.1-0.2c-1-0.3-1.4-0.9-1.4-1.9v-1
				c0-0.7,0.3-1.5,0.9-2.5c1.3-1.9,3.1-2.8,5.4-2.8c0.2,0.1,0.3,0.2,0.4,0.2V35.6z"/>
			<g>
				<path class="st5" d="M78.9,49.8c-2.8,0-5.5-0.9-7.5-2.5c-2.9-2.3-4.1-5.9-3.2-9.6c0.9-3.9,3.8-7,7.5-8l0.1,0l0.3-0.2
					c1-0.4,2.1-0.6,3.2-0.6c4.5,0,8.2,3.5,9.8,6.9c2.3,4.7,1.1,9.5-3.2,12.1C83.9,49.1,81.4,49.8,78.9,49.8z M70.8,41.4
					c0.3,1.2,0.9,2.2,1.7,3.1c1.2,1.2,2.9,2.1,4.8,2.4l0.6,0.1l0-0.6c-0.1-1.6-0.1-3.2-0.1-4.7l0-0.5l-0.5-0.1c-2.3,0-4.2-0.1-6-0.3
					l-0.7-0.1L70.8,41.4z M80.4,41.7c0,1.4,0.1,3,0,4.5l0,0.6l0.6-0.1c3.2-0.7,5.6-2.6,6.3-5l0.2-0.7l-0.7,0.1
					c-0.9,0.1-1.8,0.1-2.9,0.1c-0.9,0-1.8,0-2.8-0.1l-0.7,0L80.4,41.7z M76.9,32.3c-3.2,1-5.2,2.9-6,5.4l-0.2,0.6h1.1l5.9,0
					l-0.1-1.6c-0.1-1.4-0.1-2.7-0.1-4l0-0.7L76.9,32.3z M80.3,32.6c0.1,1.4,0.1,2.8,0.1,4.4l0,1.3l0.5,0c0.9,0,1.8,0,2.7-0.1
					c0.5,0,1,0,1.5-0.1c0.4,0,0.8-0.1,1.3-0.1l0.7,0l-0.3-0.7c-1.2-2.7-3.3-4.6-5.8-5.3l-0.7-0.2L80.3,32.6z"/>
				<path class="st5" d="M78.9,49.8c-2.8,0-5.5-0.9-7.5-2.5c-2.9-2.3-4.1-5.9-3.2-9.6c0.9-3.9,3.8-7,7.5-8l0.1,0l0.3-0.2
					c1-0.4,2.1-0.6,3.2-0.6c4.5,0,8.2,3.5,9.8,6.9c2.3,4.7,1.1,9.5-3.2,12.1C83.9,49.1,81.4,49.8,78.9,49.8z M70.8,41.4
					c0.3,1.2,0.9,2.2,1.7,3.1c1.2,1.2,2.9,2.1,4.8,2.4l0.6,0.1l0-0.6c-0.1-1.6-0.1-3.2-0.1-4.7l0-0.5l-0.5-0.1c-2.3,0-4.2-0.1-6-0.3
					l-0.7-0.1L70.8,41.4z M80.4,41.7c0,1.4,0.1,3,0,4.5l0,0.6l0.6-0.1c3.2-0.7,5.6-2.6,6.3-5l0.2-0.7l-0.7,0.1
					c-0.9,0.1-1.8,0.1-2.9,0.1c-0.9,0-1.8,0-2.8-0.1l-0.7,0L80.4,41.7z M76.9,32.3c-3.2,1-5.2,2.9-6,5.4l-0.2,0.6h1.1l5.9,0
					l-0.1-1.6c-0.1-1.4-0.1-2.7-0.1-4l0-0.7L76.9,32.3z M80.3,32.6c0.1,1.4,0.1,2.8,0.1,4.4l0,1.3l0.5,0c0.9,0,1.8,0,2.7-0.1
					c0.5,0,1,0,1.5-0.1c0.4,0,0.8-0.1,1.3-0.1l0.7,0l-0.3-0.7c-1.2-2.7-3.3-4.6-5.8-5.3l-0.7-0.2L80.3,32.6z"/>
			</g>
		</g>
		<g>
			<path class="st6" d="M30.9,37.4c0-1.3-0.5-3-1.5-5c-0.7-1.2-1.5-2.2-2.5-2.9c-1.9-1.6-4.4-2.4-7.6-2.4c-2.5,0.4-4.4,0.8-5.8,1.3
				c-2.3,1-4.7,2.5-7.3,4.3c-1.7,1.3-3.5,3.1-5.3,5.3v0.5c1.4,1.2,2.8,2.6,4.1,4.1h0.3c0.1,0,0.2-0.1,0.2-0.2v-0.3l-0.1-0.5
				c0.9-2.3,2.4-4.6,4.6-7c3.1-2.7,5.5-4.3,7.3-4.6h0.2c0.2,0,0.4,1.3,0.6,3.7c-0.1,0-0.1,0-0.1,0.1l0.1,0.5v0.1
				c0,6.2-0.5,11.6-1.4,16.3c0.1,0.5,0.3,0.7,0.6,0.7c0.2,0,0.5,0,0.8-0.1l0.2,0.1c0.8-0.1,1.6-0.3,2.4-0.6c1.2-0.3,3.1-1.4,5.6-3.3
				c1.1-1.2,1.7-1.8,1.7-1.8c1.9-3,2.8-5.2,2.8-6.7c0-0.2,0-0.3-0.1-0.4c0.1-0.1,0.1-0.2,0.1-0.3V37.4z M27.5,37.5
				c0,2.1-0.6,3.8-1.8,5.2c-1.3,1.3-2.8,2.3-4.4,2.9c0.2-1.5,0.4-2.7,0.4-3.4v-4.4c0-0.3,0-0.7,0.1-1.2c-0.3-3.5-0.6-5.7-1-6.5
				C20.2,30,20,29.9,20,29.8v-0.1c0.4-0.1,0.6-0.1,0.7-0.1l0.6,0.1c1.5,0.2,3.1,1.3,5,3.3c0.8,1.6,1.2,2.7,1.2,3.4V37.5z"/>
			<path class="st6" d="M42.5,33.7c-0.4-0.4-1.3-0.7-2.7-0.9c-0.9,0-1.8,0.1-2.6,0.4c-3.7,2-5.5,4.9-5.5,8.6c0,1.4,0.3,2.8,1,4.2
				c0.7,1,1.3,1.6,2,1.9c0,0.4,0.9,0.5,2.6,0.5c0.7,0,1.1-0.1,1.3-0.3c1.1-0.2,2.2-1,3.4-2.2c1.7-2.5,2.6-4.8,2.6-6.8v-0.6
				C44.7,36.7,44,35,42.5,33.7z M40.3,39.8c0,0.4-0.1,1-0.4,1.9l0.1,0.3v0.2c-0.3,1.1-0.8,1.8-1.3,2.3c0,0.3-0.7,0.6-2,0.8h-0.1
				c-0.4,0-0.9-0.2-1.4-0.7c-0.6-0.7-0.9-1.4-0.9-2.3c0.1-1.3,0.1-2.1,0.2-2.3c0.8-2.5,2-3.7,3.5-3.7c0.6,0.1,1,0.3,1.1,0.5
				c0.5,0,0.9,0.9,1.3,2.8V39.8z"/>
			<path class="st6" d="M54.2,32.8c0.4,0.1,0.6,0.1,0.7,0.2l0.2-0.1c1.1,0.4,2,1,2.5,1.9c0,0.3,0.1,0.4,0.2,0.4
				c1.2-1.1,2.1-1.7,2.8-1.8c0.3-0.1,1-0.2,2.1-0.3c1.9,0.2,3.1,1,3.4,2.3c0.4,0.9,0.7,1.7,0.8,2.5c0,3.7-0.7,7-2.2,10.1l-0.4,0.4
				h-0.5c-1-0.7-1.9-1.4-2.8-1.9l-0.3-0.8c0.5-0.6,1-2.1,1.6-4.3c0.2-0.7,0.3-1.5,0.3-2.5c0-1.1-0.3-1.7-0.8-1.7
				c-0.6,0-1.4,0.6-2.3,1.7c-0.6,0.9-1.3,2.2-1.8,4.1l-0.9,4.3c0,0.3-0.1,0.5-0.4,0.6h-0.6c-0.1,0-0.2,0-0.3-0.1
				c-0.2,0.1-0.5,0.2-0.8,0.2c-0.4-0.1-0.6-0.2-0.6-0.3c0.2-1.3,0.7-3.4,1.4-6.3l0.3-2.4l-0.1-0.3l0.1-0.5c-0.1-1.2-0.5-1.8-1.2-1.8
				c-0.7,0.2-1.3,0.8-2.1,1.8c-0.9,1.3-1.6,3.5-2.1,6.6v2.1c0,0.2,0.1,0.4,0.2,0.6c0,0.1-0.1,0.2-0.3,0.4c0.1,0.2,0.2,0.3,0.2,0.5
				c0,0.1-0.1,0.2-0.3,0.3h-0.5c-2.4-1.7-3.8-2.6-4.1-2.6l-0.2-0.3v-0.2c0.2-1.8,0.7-3.8,1.5-5.7c0.9-2.2,2.2-4,3.7-5.4
				C51.7,33.3,52.9,32.8,54.2,32.8z"/>
			<path class="st6" d="M99,19.6h0.3c1.3,0.4,1.9,0.8,1.9,1.3c-0.8,1.5-1.4,3.3-1.9,5.5c-1.3,5.3-1.9,9.1-1.9,11.2
				c-0.1,0-0.1,1.3-0.2,3.8c0,2,0.4,4.2,1.2,6.9v0.1l-0.3,0.2h-0.3c-0.1,0-1.6-1-4.4-3c-0.7-0.3-1.2-0.7-1.5-1.1v-2.2
				c0-1.3,0.6-4.7,1.7-10c1.2-4.3,2.6-8.1,4.2-11.5C98.1,20.3,98.5,19.9,99,19.6z"/>
			<path class="st6" d="M113.6,43.5c-1-2.9-1.5-5.4-1.5-7.6c0.1-1.3,0.1-2.3,0.2-3.1c-0.1-0.1-0.6-0.2-1.5-0.3
				c-0.4,0.1-0.8,0.2-1.3,0.2c-1.3,0-3.1,0.7-5.4,2c-0.7,0.6-1.2,0.9-1.3,0.9c-2.3,2.3-3.4,4.2-3.4,5.7v1.3c0,1.8,0.6,3.2,1.8,4.3
				c0.6,0.7,1.6,1.2,3,1.5h0.4c1.9,0,3.2-0.3,3.7-0.9h0.2c0.1,0.9,0.2,1.3,0.4,1.3c0.3,0,0.7-0.2,1.1-0.7c2.5-1.8,3.8-2.8,4.1-3.2
				V45C114.2,44.7,114,44.2,113.6,43.5z M109.5,35.3c-0.1,0.7-0.2,1.1-0.3,1.1c-0.4,2.3-0.6,3.5-0.7,3.8c0.1,0.9,0.1,1.4,0.1,1.6
				v0.1c-0.7,1.2-1.8,1.8-3.2,1.8c-1.4-0.2-2.1-0.8-2.1-2c0-2,0.6-3.6,1.9-4.6c0.9-0.9,2.2-1.6,3.9-2l0.4,0.1V35.3z"/>
			<path class="st6" d="M117.4,32.1h0.5c1.2,0.9,1.9,1.4,2,1.4c0.8-0.4,1.7-0.6,2.6-0.6h0.2c2.3,0,3.8,1.2,4.6,3.5
				c0.2,0.7,0.2,1.4,0.2,2.2v1.1c-0.7,4.4-1.3,7.2-2,8.4c-0.2,0.4-0.4,0.5-0.5,0.5h-0.3c-0.6-0.4-1.1-0.7-1.6-0.8l-0.2-0.2v-0.2
				c0.5-1.7,1-3.9,1.3-6.6l0.1-0.5c0-2-0.6-3-1.7-3h-0.2c-0.9,0.3-1.6,0.7-2.1,1.4c-0.6,0.6-1.1,1.8-1.6,3.5
				c-0.5,2.1-0.7,3.9-0.7,5.6c0,0.2-0.4,0.4-1.1,0.6c-0.1,0-0.1,0-0.1-0.1l-0.4,0.1h-0.5c-0.7,0-1-0.2-1-0.7c0-0.2-0.1-0.6-0.2-1.2
				c0-0.1,0-0.1,0.1-0.2c-0.1-0.8-0.1-1.3-0.2-1.4l0.1-0.2c0-0.2,0-0.5-0.1-0.9c0-3.1,0.5-6.3,1.4-9.8
				C116.8,32.8,117.2,32.2,117.4,32.1C117.3,32.1,117.4,32.1,117.4,32.1z"/>
			<path class="st6" d="M146,20.7c-0.9,0.3-1.5,0.6-1.8,0.9c-1,0.2-1.6,0.4-1.7,0.6c-0.3,0.8-0.6,1.5-1,2.3c-1.3,3.1-2.2,6-2.6,8.5
				c-0.4-0.1-0.8-0.2-1.1-0.2h-0.4c-1,0.1-1.6,0.2-1.9,0.3c-1.3,0.2-2.8,1.1-4.4,2.7c-1.7,2.3-2.5,4.2-2.5,5.8v1.4
				c0,1.9,0.7,3.3,2.2,4.3c0,0.3,1.3,0.7,3.8,1.1c1.1,0,2-0.3,2.8-0.9h0.2c0.1,1,0.3,1.4,0.5,1.4h0.3c0.1,0,0.2-0.1,0.2-0.2
				c0.8-0.3,1.2-0.5,1.2-0.7c0.9-0.6,1.5-1,1.8-1.4c1-0.4,1.4-1,1.4-1.7c-0.5-1.3-0.7-3.1-0.7-5.5v-1c0-0.3,0-0.7,0.1-1.4
				c-0.1,0-0.1,0-0.1-0.1c0.1,0,0.1,0,0.1-0.1v-0.2c0-2.4,0.4-5.2,1.3-8.5c0.5-1.8,1.4-4.2,2.7-7.2v-0.2L146,20.7z M138.2,35.6
				c-0.4,2.2-0.7,4.2-0.9,6c0,0.3-0.3,0.7-0.9,1.2c-0.4,0.4-1.2,0.6-2.3,0.6c-0.3,0-0.7-0.1-1.1-0.2c-1-0.3-1.4-0.9-1.4-1.9v-1
				c0-0.7,0.3-1.5,0.9-2.5c1.3-1.9,3.1-2.8,5.4-2.8c0.2,0.1,0.3,0.2,0.4,0.2V35.6z"/>
			<g>
				<path class="st6" d="M78.9,49.8c-2.8,0-5.5-0.9-7.5-2.5c-2.9-2.3-4.1-5.9-3.2-9.6c0.9-3.9,3.8-7,7.5-8l0.1,0l0.3-0.2
					c1-0.4,2.1-0.6,3.2-0.6c4.5,0,8.2,3.5,9.8,6.9c2.3,4.7,1.1,9.5-3.2,12.1C83.9,49.1,81.4,49.8,78.9,49.8z M70.8,41.4
					c0.3,1.2,0.9,2.2,1.7,3.1c1.2,1.2,2.9,2.1,4.8,2.4l0.6,0.1l0-0.6c-0.1-1.6-0.1-3.2-0.1-4.7l0-0.5l-0.5-0.1c-2.3,0-4.2-0.1-6-0.3
					l-0.7-0.1L70.8,41.4z M80.4,41.7c0,1.4,0.1,3,0,4.5l0,0.6l0.6-0.1c3.2-0.7,5.6-2.6,6.3-5l0.2-0.7l-0.7,0.1
					c-0.9,0.1-1.8,0.1-2.9,0.1c-0.9,0-1.8,0-2.8-0.1l-0.7,0L80.4,41.7z M76.9,32.3c-3.2,1-5.2,2.9-6,5.4l-0.2,0.6h1.1l5.9,0
					l-0.1-1.6c-0.1-1.4-0.1-2.7-0.1-4l0-0.7L76.9,32.3z M80.3,32.6c0.1,1.4,0.1,2.8,0.1,4.4l0,1.3l0.5,0c0.9,0,1.8,0,2.7-0.1
					c0.5,0,1,0,1.5-0.1c0.4,0,0.8-0.1,1.3-0.1l0.7,0l-0.3-0.7c-1.2-2.7-3.3-4.6-5.8-5.3l-0.7-0.2L80.3,32.6z"/>
			</g>
		</g>
		<g>
			<path class="st2" d="M30.9,37.4c0-1.3-0.5-3-1.5-5c-0.7-1.2-1.5-2.2-2.5-2.9c-1.9-1.6-4.4-2.4-7.6-2.4c-2.5,0.4-4.4,0.8-5.8,1.3
				c-2.3,1-4.7,2.5-7.3,4.3c-1.7,1.3-3.5,3.1-5.3,5.3v0.5c1.4,1.2,2.8,2.6,4.1,4.1h0.3c0.1,0,0.2-0.1,0.2-0.2v-0.3l-0.1-0.5
				c0.9-2.3,2.4-4.6,4.6-7c3.1-2.7,5.5-4.3,7.3-4.6h0.2c0.2,0,0.4,1.3,0.6,3.7c-0.1,0-0.1,0-0.1,0.1l0.1,0.5v0.1
				c0,6.2-0.5,11.6-1.4,16.3c0.1,0.5,0.3,0.7,0.6,0.7c0.2,0,0.5,0,0.8-0.1l0.2,0.1c0.8-0.1,1.6-0.3,2.4-0.6c1.2-0.3,3.1-1.4,5.6-3.3
				c1.1-1.2,1.7-1.8,1.7-1.8c1.9-3,2.8-5.2,2.8-6.7c0-0.2,0-0.3-0.1-0.4c0.1-0.1,0.1-0.2,0.1-0.3V37.4z M27.5,37.5
				c0,2.1-0.6,3.8-1.8,5.2c-1.3,1.3-2.8,2.3-4.4,2.9c0.2-1.5,0.4-2.7,0.4-3.4v-4.4c0-0.3,0-0.7,0.1-1.2c-0.3-3.5-0.6-5.7-1-6.5
				C20.2,30,20,29.9,20,29.8v-0.1c0.4-0.1,0.6-0.1,0.7-0.1l0.6,0.1c1.5,0.2,3.1,1.3,5,3.3c0.8,1.6,1.2,2.7,1.2,3.4V37.5z"/>
			<path class="st2" d="M42.5,33.7c-0.4-0.4-1.3-0.7-2.7-0.9c-0.9,0-1.8,0.1-2.6,0.4c-3.7,2-5.5,4.9-5.5,8.6c0,1.4,0.3,2.8,1,4.2
				c0.7,1,1.3,1.6,2,1.9c0,0.4,0.9,0.5,2.6,0.5c0.7,0,1.1-0.1,1.3-0.3c1.1-0.2,2.2-1,3.4-2.2c1.7-2.5,2.6-4.8,2.6-6.8v-0.6
				C44.7,36.7,44,35,42.5,33.7z M40.3,39.8c0,0.4-0.1,1-0.4,1.9l0.1,0.3v0.2c-0.3,1.1-0.8,1.8-1.3,2.3c0,0.3-0.7,0.6-2,0.8h-0.1
				c-0.4,0-0.9-0.2-1.4-0.7c-0.6-0.7-0.9-1.4-0.9-2.3c0.1-1.3,0.1-2.1,0.2-2.3c0.8-2.5,2-3.7,3.5-3.7c0.6,0.1,1,0.3,1.1,0.5
				c0.5,0,0.9,0.9,1.3,2.8V39.8z"/>
			<path class="st2" d="M54.2,32.8c0.4,0.1,0.6,0.1,0.7,0.2l0.2-0.1c1.1,0.4,2,1,2.5,1.9c0,0.3,0.1,0.4,0.2,0.4
				c1.2-1.1,2.1-1.7,2.8-1.8c0.3-0.1,1-0.2,2.1-0.3c1.9,0.2,3.1,1,3.4,2.3c0.4,0.9,0.7,1.7,0.8,2.5c0,3.7-0.7,7-2.2,10.1l-0.4,0.4
				h-0.5c-1-0.7-1.9-1.4-2.8-1.9l-0.3-0.8c0.5-0.6,1-2.1,1.6-4.3c0.2-0.7,0.3-1.5,0.3-2.5c0-1.1-0.3-1.7-0.8-1.7
				c-0.6,0-1.4,0.6-2.3,1.7c-0.6,0.9-1.3,2.2-1.8,4.1l-0.9,4.3c0,0.3-0.1,0.5-0.4,0.6h-0.6c-0.1,0-0.2,0-0.3-0.1
				c-0.2,0.1-0.5,0.2-0.8,0.2c-0.4-0.1-0.6-0.2-0.6-0.3c0.2-1.3,0.7-3.4,1.4-6.3l0.3-2.4l-0.1-0.3l0.1-0.5c-0.1-1.2-0.5-1.8-1.2-1.8
				c-0.7,0.2-1.3,0.8-2.1,1.8c-0.9,1.3-1.6,3.5-2.1,6.6v2.1c0,0.2,0.1,0.4,0.2,0.6c0,0.1-0.1,0.2-0.3,0.4c0.1,0.2,0.2,0.3,0.2,0.5
				c0,0.1-0.1,0.2-0.3,0.3h-0.5c-2.4-1.7-3.8-2.6-4.1-2.6l-0.2-0.3v-0.2c0.2-1.8,0.7-3.8,1.5-5.7c0.9-2.2,2.2-4,3.7-5.4
				C51.7,33.3,52.9,32.8,54.2,32.8z"/>
			<path class="st2" d="M99,19.6h0.3c1.3,0.4,1.9,0.8,1.9,1.3c-0.8,1.5-1.4,3.3-1.9,5.5c-1.3,5.3-1.9,9.1-1.9,11.2
				c-0.1,0-0.1,1.3-0.2,3.8c0,2,0.4,4.2,1.2,6.9v0.1l-0.3,0.2h-0.3c-0.1,0-1.6-1-4.4-3c-0.7-0.3-1.2-0.7-1.5-1.1v-2.2
				c0-1.3,0.6-4.7,1.7-10c1.2-4.3,2.6-8.1,4.2-11.5C98.1,20.3,98.5,19.9,99,19.6z"/>
			<path class="st2" d="M113.6,43.5c-1-2.9-1.5-5.4-1.5-7.6c0.1-1.3,0.1-2.3,0.2-3.1c-0.1-0.1-0.6-0.2-1.5-0.3
				c-0.4,0.1-0.8,0.2-1.3,0.2c-1.3,0-3.1,0.7-5.4,2c-0.7,0.6-1.2,0.9-1.3,0.9c-2.3,2.3-3.4,4.2-3.4,5.7v1.3c0,1.8,0.6,3.2,1.8,4.3
				c0.6,0.7,1.6,1.2,3,1.5h0.4c1.9,0,3.2-0.3,3.7-0.9h0.2c0.1,0.9,0.2,1.3,0.4,1.3c0.3,0,0.7-0.2,1.1-0.7c2.5-1.8,3.8-2.8,4.1-3.2
				V45C114.2,44.7,114,44.2,113.6,43.5z M109.5,35.3c-0.1,0.7-0.2,1.1-0.3,1.1c-0.4,2.3-0.6,3.5-0.7,3.8c0.1,0.9,0.1,1.4,0.1,1.6
				v0.1c-0.7,1.2-1.8,1.8-3.2,1.8c-1.4-0.2-2.1-0.8-2.1-2c0-2,0.6-3.6,1.9-4.6c0.9-0.9,2.2-1.6,3.9-2l0.4,0.1V35.3z"/>
			<path class="st2" d="M117.4,32.1h0.5c1.2,0.9,1.9,1.4,2,1.4c0.8-0.4,1.7-0.6,2.6-0.6h0.2c2.3,0,3.8,1.2,4.6,3.5
				c0.2,0.7,0.2,1.4,0.2,2.2v1.1c-0.7,4.4-1.3,7.2-2,8.4c-0.2,0.4-0.4,0.5-0.5,0.5h-0.3c-0.6-0.4-1.1-0.7-1.6-0.8l-0.2-0.2v-0.2
				c0.5-1.7,1-3.9,1.3-6.6l0.1-0.5c0-2-0.6-3-1.7-3h-0.2c-0.9,0.3-1.6,0.7-2.1,1.4c-0.6,0.6-1.1,1.8-1.6,3.5
				c-0.5,2.1-0.7,3.9-0.7,5.6c0,0.2-0.4,0.4-1.1,0.6c-0.1,0-0.1,0-0.1-0.1l-0.4,0.1h-0.5c-0.7,0-1-0.2-1-0.7c0-0.2-0.1-0.6-0.2-1.2
				c0-0.1,0-0.1,0.1-0.2c-0.1-0.8-0.1-1.3-0.2-1.4l0.1-0.2c0-0.2,0-0.5-0.1-0.9c0-3.1,0.5-6.3,1.4-9.8
				C116.8,32.8,117.2,32.2,117.4,32.1C117.3,32.1,117.4,32.1,117.4,32.1z"/>
			<path class="st2" d="M146,20.7c-0.9,0.3-1.5,0.6-1.8,0.9c-1,0.2-1.6,0.4-1.7,0.6c-0.3,0.8-0.6,1.5-1,2.3c-1.3,3.1-2.2,6-2.6,8.5
				c-0.4-0.1-0.8-0.2-1.1-0.2h-0.4c-1,0.1-1.6,0.2-1.9,0.3c-1.3,0.2-2.8,1.1-4.4,2.7c-1.7,2.3-2.5,4.2-2.5,5.8v1.4
				c0,1.9,0.7,3.3,2.2,4.3c0,0.3,1.3,0.7,3.8,1.1c1.1,0,2-0.3,2.8-0.9h0.2c0.1,1,0.3,1.4,0.5,1.4h0.3c0.1,0,0.2-0.1,0.2-0.2
				c0.8-0.3,1.2-0.5,1.2-0.7c0.9-0.6,1.5-1,1.8-1.4c1-0.4,1.4-1,1.4-1.7c-0.5-1.3-0.7-3.1-0.7-5.5v-1c0-0.3,0-0.7,0.1-1.4
				c-0.1,0-0.1,0-0.1-0.1c0.1,0,0.1,0,0.1-0.1v-0.2c0-2.4,0.4-5.2,1.3-8.5c0.5-1.8,1.4-4.2,2.7-7.2v-0.2L146,20.7z M138.2,35.6
				c-0.4,2.2-0.7,4.2-0.9,6c0,0.3-0.3,0.7-0.9,1.2c-0.4,0.4-1.2,0.6-2.3,0.6c-0.3,0-0.7-0.1-1.1-0.2c-1-0.3-1.4-0.9-1.4-1.9v-1
				c0-0.7,0.3-1.5,0.9-2.5c1.3-1.9,3.1-2.8,5.4-2.8c0.2,0.1,0.3,0.2,0.4,0.2V35.6z"/>
			<g>
				<path class="st2" d="M78.9,49.8c-2.8,0-5.5-0.9-7.5-2.5c-2.9-2.3-4.1-5.9-3.2-9.6c0.9-3.9,3.8-7,7.5-8l0.1,0l0.3-0.2
					c1-0.4,2.1-0.6,3.2-0.6c4.5,0,8.2,3.5,9.8,6.9c2.3,4.7,1.1,9.5-3.2,12.1C83.9,49.1,81.4,49.8,78.9,49.8z M70.8,41.4
					c0.3,1.2,0.9,2.2,1.7,3.1c1.2,1.2,2.9,2.1,4.8,2.4l0.6,0.1l0-0.6c-0.1-1.6-0.1-3.2-0.1-4.7l0-0.5l-0.5-0.1c-2.3,0-4.2-0.1-6-0.3
					l-0.7-0.1L70.8,41.4z M80.4,41.7c0,1.4,0.1,3,0,4.5l0,0.6l0.6-0.1c3.2-0.7,5.6-2.6,6.3-5l0.2-0.7l-0.7,0.1
					c-0.9,0.1-1.8,0.1-2.9,0.1c-0.9,0-1.8,0-2.8-0.1l-0.7,0L80.4,41.7z M76.9,32.3c-3.2,1-5.2,2.9-6,5.4l-0.2,0.6h1.1l5.9,0
					l-0.1-1.6c-0.1-1.4-0.1-2.7-0.1-4l0-0.7L76.9,32.3z M80.3,32.6c0.1,1.4,0.1,2.8,0.1,4.4l0,1.3l0.5,0c0.9,0,1.8,0,2.7-0.1
					c0.5,0,1,0,1.5-0.1c0.4,0,0.8-0.1,1.3-0.1l0.7,0l-0.3-0.7c-1.2-2.7-3.3-4.6-5.8-5.3l-0.7-0.2L80.3,32.6z"/>
				<path class="st2" d="M78.9,49.8c-2.8,0-5.5-0.9-7.5-2.5c-2.9-2.3-4.1-5.9-3.2-9.6c0.9-3.9,3.8-7,7.5-8l0.1,0l0.3-0.2
					c1-0.4,2.1-0.6,3.2-0.6c4.5,0,8.2,3.5,9.8,6.9c2.3,4.7,1.1,9.5-3.2,12.1C83.9,49.1,81.4,49.8,78.9,49.8z M70.8,41.4
					c0.3,1.2,0.9,2.2,1.7,3.1c1.2,1.2,2.9,2.1,4.8,2.4l0.6,0.1l0-0.6c-0.1-1.6-0.1-3.2-0.1-4.7l0-0.5l-0.5-0.1c-2.3,0-4.2-0.1-6-0.3
					l-0.7-0.1L70.8,41.4z M80.4,41.7c0,1.4,0.1,3,0,4.5l0,0.6l0.6-0.1c3.2-0.7,5.6-2.6,6.3-5l0.2-0.7l-0.7,0.1
					c-0.9,0.1-1.8,0.1-2.9,0.1c-0.9,0-1.8,0-2.8-0.1l-0.7,0L80.4,41.7z M76.9,32.3c-3.2,1-5.2,2.9-6,5.4l-0.2,0.6h1.1l5.9,0
					l-0.1-1.6c-0.1-1.4-0.1-2.7-0.1-4l0-0.7L76.9,32.3z M80.3,32.6c0.1,1.4,0.1,2.8,0.1,4.4l0,1.3l0.5,0c0.9,0,1.8,0,2.7-0.1
					c0.5,0,1,0,1.5-0.1c0.4,0,0.8-0.1,1.3-0.1l0.7,0l-0.3-0.7c-1.2-2.7-3.3-4.6-5.8-5.3l-0.7-0.2L80.3,32.6z"/>
			</g>
		</g>
	</g>
</g>
<g id="Слой_2">
</g>
</svg>
