<?xml version="1.0" encoding="utf-8"?>
<!-- Generator: Adobe Illustrator 17.1.0, SVG Export Plug-In . SVG Version: 6.00 Build 0)  -->
<!DOCTYPE svg PUBLIC "-//W3C//DTD SVG 1.1//EN" "http://www.w3.org/Graphics/SVG/1.1/DTD/svg11.dtd">
<svg version="1.1" id="Слой_1" xmlns="http://www.w3.org/2000/svg" xmlns:xlink="http://www.w3.org/1999/xlink" x="0px" y="0px"
	 viewBox="0 0 2834.6 5669.3" enable-background="new 0 0 2834.6 5669.3" xml:space="preserve">
<g id="Слой_3" display="none">
	<rect x="249.7" y="2135.3" display="inline" fill="#219CBC" width="1380.1" height="783.3"/>
</g>
<g id="Слой_2">
	<rect x="870" y="2739.6" fill="none" width="1460" height="434"/>
	<text transform="matrix(1 0 0 1 870.0273 2833.397)" font-family="'CaviarDreams-Bold'" font-size="120" letter-spacing="12">TECHNOTENDENCY LTD</text>
	<path d="M682.5,2579c-12.6,17-35.2,28.3-61,28.3c-26.8,0-50.2-12.3-62.5-30.5c-8.1,11.4-12.8,25.1-12.8,39.9
		c0,39.2,33,70.9,73.8,70.9s73.8-31.7,73.8-70.9C693.8,2602.9,689.6,2589.9,682.5,2579z"/>
	<path d="M621,2461c-40.8,0-73.8,31.7-73.8,70.9c0,13.9,4.2,26.8,11.3,37.8c12.6-17,35.2-28.3,61-28.3c26.8,0,50.2,12.3,62.5,30.5
		c8.1-11.4,12.8-25.1,12.8-39.9C694.8,2492.7,661.8,2461,621,2461z"/>
	<g>
		<path d="M764.3,2890.2C800,2855,822,2807,822,2754.1c0-38.2-11.4-73.8-31.2-103.9c-34.7,46.8-96.8,77.9-167.7,77.9
			c-73.8,0-138.1-33.8-171.9-83.8c-22.2,31.3-35.2,69.1-35.2,109.8c0,53,22,101,57.7,136.1c36.9-24.8,88.4-40.2,145.3-40.2
			S727.5,2865.4,764.3,2890.2z"/>
	</g>
</g>
</svg>
