<?xml version="1.0" encoding="utf-8"?>
<!-- Generator: Adobe Illustrator 17.1.0, SVG Export Plug-In . SVG Version: 6.00 Build 0)  -->
<!DOCTYPE svg PUBLIC "-//W3C//DTD SVG 1.1//EN" "http://www.w3.org/Graphics/SVG/1.1/DTD/svg11.dtd">
<svg version="1.1" id="Слой_1" xmlns="http://www.w3.org/2000/svg" xmlns:xlink="http://www.w3.org/1999/xlink" x="0px" y="0px"
	 viewBox="0 0 1000 400" enable-background="new 0 0 1000 400" xml:space="preserve">
<g id="Слой_1_1_">
	<g>
		<g>
			<polygon fill="none" points="170.9,190.6 170.9,235.4 126.1,235.4 126.1,300.2 235.5,300.2 235.5,190.6 			"/>
			<polygon fill="#A4A4A4" points="19.9,194.1 84.6,194.1 84.6,149.2 129.4,149.2 129.4,84.6 19.9,84.6 			"/>
			<g>
				<polygon fill="#A4A4A4" points="153.7,149.1 171,149.1 171,166.3 195.9,166.3 195.9,124.1 153.7,124.1 				"/>
				<polygon fill="#A4A4A4" points="101.6,260.7 101.6,235.8 84.4,235.8 84.4,218.5 59.4,218.5 59.4,260.7 				"/>
			</g>
		</g>
	</g>
</g>
<g id="Слой_2">
	<rect x="101.6" y="164.8" fill="none" width="904.4" height="149.6"/>
	<text transform="matrix(1 0 0 1 101.751 229.7348)" fill="#A4A4A4" font-family="'ArialMT'" font-size="90">Technotendency Ltd</text>
</g>
</svg>
