<?xml version="1.0" encoding="utf-8"?>
<!-- Generator: Adobe Illustrator 19.2.0, SVG Export Plug-In . SVG Version: 6.00 Build 0)  -->
<svg version="1.1" id="Слой_1" xmlns="http://www.w3.org/2000/svg" xmlns:xlink="http://www.w3.org/1999/xlink" x="0px" y="0px"
	 viewBox="0 0 98.8 59.8" style="enable-background:new 0 0 98.8 59.8;" xml:space="preserve">
<style type="text/css">
	.st0{display:none;}
	.st1{fill:#D2BC7A;}
</style>
<g id="Layer_1" class="st0">
</g>
<g id="Layer_2">
	<g>
		<g>
			<g>
				<path class="st1" d="M0.3,39.8h8v1.1c0,3.5,0.3,6,1,7.7c0.6,1.6,1.7,2.8,3.2,3.5c1.2,0.5,2.9,0.9,5.3,1.1s7.4,0.3,14.8,0.3
					c4.1,0,7.2-0.2,9.5-0.6c2.2-0.4,3.9-1.1,5-2.1c0.6-0.5,1.1-1.4,1.3-2.7s0.4-2.9,0.4-5.1c0-4.3-0.5-7-1.6-8.1s-3.2-1.8-6.4-2
					l-22.1-1.4c-6.6-0.4-11.2-1.8-13.7-4c-2.5-2.3-3.8-6.1-3.8-11.4c0-3.4,0.4-6.1,1.2-8.2c0.8-2.1,2.2-3.8,4-5.1
					c1.4-1,3.5-1.8,6.1-2.2C15.1,0.2,19.7,0,26.2,0h2.5C36,0,41.2,0.3,44.2,0.9s5.5,1.6,7.5,3c1.4,0.9,2.4,2.3,3.1,4s1,3.9,1,6.5
					c0,0.8,0,1.3,0,1.7c0,0.4,0,0.8-0.1,1.1h-8v-1.4c0-2.1-0.2-3.8-0.5-4.9s-0.8-2-1.5-2.5c-1-0.8-2.8-1.4-5.3-1.7
					C37.9,6.4,33,6.2,25.9,6.2c-7.4,0-12,0.7-13.9,2c-1.9,1.4-2.8,4.1-2.8,8.1c0,3.3,0.6,5.6,1.8,6.9c1.2,1.3,3.6,2,7.1,2.2
					l22.5,1.5c5.9,0.4,10,1.7,12.4,4c2.4,2.2,3.6,5.9,3.6,11.2c0,3.8-0.3,6.7-0.9,8.6s-1.6,3.5-3,4.8c-1.7,1.6-4.1,2.7-7,3.3
					c-2.9,0.6-8.3,1-16,1h-3.6c-6.6,0-11.3-0.3-14-0.8s-5-1.5-6.8-2.9c-1.8-1.3-3.1-2.9-4-5.1C0.5,48.9,0,46.2,0,42.9v-3.1H0.3z"/>
			</g>
		</g>
		<g>
			<g>
				<path class="st1" d="M48.6,58.7V0.5h50.2v6.2H56.5v19h41v5.9h-41v20.9h42.3v6.1H48.6V58.7z"/>
			</g>
		</g>
	</g>
</g>
</svg>
