<?xml version="1.0" encoding="utf-8"?>
<!-- Generator: Adobe Illustrator 19.2.0, SVG Export Plug-In . SVG Version: 6.00 Build 0)  -->
<svg version="1.1" id="Слой_1" xmlns="http://www.w3.org/2000/svg" xmlns:xlink="http://www.w3.org/1999/xlink" x="0px" y="0px"
	 viewBox="0 0 545.9 59.8" style="enable-background:new 0 0 545.9 59.8;" xml:space="preserve">
<style type="text/css">
	.st0{display:none;}
	.st1{fill:#D2BC7A;}
	.st2{fill:#D2BC7A;stroke:#D2BC7A;stroke-width:0.25;stroke-miterlimit:10;}
	.st3{fill:none;stroke:#D2BC7A;stroke-width:2;stroke-miterlimit:10;}
</style>
<g id="Layer_1" class="st0">
	
		<image style="display:inline;overflow:visible;enable-background:new    ;" width="1301" height="142" xlink:href="4505EDA6.jpg"  transform="matrix(0.4228 0 0 0.4211 7.1 106.7)">
	</image>
</g>
<g id="Layer_2">
	<g>
		<path class="st1" d="M105.5,58.9V28.4h26.3v3.2h-22.2v10h21.6v3.1h-21.6v11h22.2v3.2L105.5,58.9L105.5,58.9z"/>
		<path class="st1" d="M138.5,58.9V28.4h4.1v27.3h21.3v3.2H138.5z"/>
		<path class="st1" d="M169.3,58.9V28.4h26.3v3.2h-22.2v10H195v3.1h-21.6v11h22.2v3.2L169.3,58.9L169.3,58.9z"/>
		<path class="st1" d="M202.4,58.9V28.4h6.4l20.4,27.3V28.4h4.1v30.5h-6.4l-20.4-27.3v27.3H202.4z"/>
		<path class="st1" d="M238.4,58.9l13.9-30.5h6.8L273,58.9h-4.3l-3.6-7.8h-19l-3.5,7.8H238.4z M247.6,48.1h16.3l-7.5-16.5h-1.3
			L247.6,48.1z"/>
		<path class="st1" d="M294.6,49h4.2v0.6c0,1.8,0.2,3.2,0.5,4c0.3,0.9,0.9,1.5,1.7,1.8c0.6,0.3,1.5,0.5,2.8,0.6s3.9,0.2,7.8,0.2
			c2.1,0,3.8-0.1,5-0.3c1.2-0.2,2.1-0.6,2.6-1.1c0.3-0.3,0.6-0.7,0.7-1.4s0.2-1.5,0.2-2.7c0-2.3-0.3-3.7-0.8-4.3
			c-0.6-0.6-1.7-0.9-3.3-1l-11.6-0.7c-3.5-0.2-5.9-0.9-7.2-2.1c-1.3-1.2-2-3.2-2-6c0-1.8,0.2-3.2,0.7-4.3c0.4-1.1,1.1-2,2.1-2.7
			c0.8-0.5,1.8-0.9,3.2-1.2s3.8-0.3,7.2-0.3h1.3c3.9,0,6.6,0.2,8.1,0.5c1.6,0.3,2.9,0.8,3.9,1.6c0.7,0.5,1.3,1.2,1.6,2.1
			c0.3,0.9,0.5,2,0.5,3.4c0,0.4,0,0.7,0,0.9c0,0.2,0,0.4,0,0.6h-4.2v-0.8c0-1.1-0.1-2-0.2-2.6c-0.2-0.6-0.4-1-0.8-1.3
			c-0.5-0.4-1.5-0.7-2.8-0.9c-1.3-0.2-3.9-0.3-7.6-0.3c-3.9,0-6.3,0.4-7.3,1.1s-1.5,2.1-1.5,4.3c0,1.8,0.3,3,1,3.6
			c0.6,0.7,1.9,1.1,3.7,1.2l11.8,0.8c3.1,0.2,5.3,0.9,6.5,2.1s1.9,3.1,1.9,5.9c0,2-0.2,3.5-0.5,4.5s-0.8,1.8-1.6,2.5
			c-0.9,0.8-2.1,1.4-3.7,1.8s-4.3,0.5-8.4,0.5h-1.9c-3.5,0-5.9-0.1-7.4-0.4s-2.6-0.8-3.6-1.5c-0.9-0.7-1.6-1.5-2.1-2.7
			c-0.4-1.1-0.7-2.5-0.7-4.3V49H294.6z"/>
		<path class="st1" d="M345.3,58.9h-4.1V45.4l-15.5-17h4.9l12.7,14.2L356,28.4h4.9l-15.5,17v13.5H345.3z"/>
		<path class="st1" d="M363.2,58.9V28.4h18.1c4.7,0,8,0.8,9.9,2.3s2.9,4.2,2.9,7.9v10.1c0,3.8-1,6.4-2.9,8c-1.9,1.5-5.2,2.3-9.9,2.3
			L363.2,58.9L363.2,58.9z M367.3,55.9h13.3c3.6,0,6-0.5,7.3-1.5c1.2-1,1.8-2.9,1.8-5.7v-9.9c0-3-0.6-4.9-1.8-5.9
			c-1.2-1-3.6-1.5-7.3-1.5h-13.3V55.9z"/>
		<path class="st1" d="M400.7,38.5c0-3.9,1-6.6,3-8.2c2-1.5,5.5-2.3,10.6-2.3h4.7c5.1,0,8.6,0.8,10.6,2.3s2.9,4.2,2.9,8.2v10.4
			c0,3.9-1,6.6-3,8.2c-2,1.5-5.5,2.3-10.6,2.3h-4.7c-5.1,0-8.6-0.8-10.6-2.3s-3-4.3-3-8.2V38.5H400.7z M417.8,31.2h-2.3
			c-2.6,0-4.5,0.1-5.6,0.3c-1.1,0.2-2,0.6-2.8,1.2c-0.7,0.5-1.3,1.2-1.6,2.1s-0.5,2.4-0.5,4.5V48c0,2.1,0.2,3.6,0.5,4.5
			s0.8,1.6,1.6,2.1c0.8,0.5,1.7,0.9,2.8,1.2c1.1,0.2,3,0.3,5.6,0.3h2.3c2.6,0,4.5-0.1,5.6-0.3c1.1-0.2,2.1-0.6,2.9-1.2
			c0.7-0.5,1.2-1.2,1.5-2s0.4-2.4,0.4-4.6v-8.7c0-2.1-0.2-3.7-0.5-4.5c-0.3-0.9-0.8-1.6-1.6-2.1c-0.8-0.5-1.7-0.9-2.8-1.1
			C422.3,31.3,420.4,31.2,417.8,31.2z"/>
		<path class="st1" d="M440.4,58.9V28.4h17c4.2,0,7.1,0.5,8.7,1.5s2.4,2.8,2.4,5.4v4.6c0,1.6-0.4,2.9-1.2,3.8
			c-0.8,0.9-2,1.5-3.6,1.7c1.8,0.3,3,1,3.8,1.9c0.7,0.9,1.1,2.3,1.1,4.3v7.3h-4.5v-6.3c0-2.2-0.4-3.7-1.3-4.4
			c-0.8-0.8-2.5-1.2-5-1.2h-13.3v11.9L440.4,58.9L440.4,58.9z M456.5,31.6h-12v12.2h12c3.1,0,5.2-0.3,6.1-0.9c1-0.6,1.5-1.8,1.5-3.4
			v-3.6c0-1.7-0.5-2.8-1.4-3.4S459.7,31.6,456.5,31.6z"/>
		<path class="st1" d="M476.2,28.4h4.2v20c0,2,0.1,3.3,0.4,4.1c0.3,0.8,0.7,1.4,1.3,1.9c0.7,0.5,1.5,0.8,2.4,1s2.5,0.3,4.8,0.3h3.9
			c2.3,0,3.9-0.1,4.9-0.3c0.9-0.2,1.7-0.5,2.4-1c0.6-0.5,1.1-1.1,1.3-1.9s0.4-2.2,0.4-4.1v-20h4.2v20.4c0,3.9-0.9,6.6-2.8,8.2
			s-5.2,2.3-10,2.3h-4.5c-4.8,0-8.1-0.8-10-2.3c-1.9-1.5-2.8-4.3-2.8-8.2V28.4H476.2z"/>
		<path class="st1" d="M515.2,58.9V28.4h4.1v12.9h3.2l15.2-12.9h5.5L525.9,43l19.5,16h-5.7l-17.3-14.3h-3.2V59h-4V58.9z"/>
		<g>
			<path class="st1" d="M0.3,39.8h8v1.1c0,3.5,0.3,6,1,7.7c0.6,1.6,1.7,2.8,3.2,3.5c1.2,0.5,2.9,0.9,5.3,1.1
				c2.4,0.2,7.4,0.3,14.8,0.3c4.1,0,7.2-0.2,9.5-0.6c2.2-0.4,3.9-1.1,5-2.1c0.6-0.5,1.1-1.4,1.3-2.7c0.3-1.3,0.4-2.9,0.4-5.1
				c0-4.3-0.5-7-1.6-8.1s-3.2-1.8-6.4-2l-22.1-1.4c-6.6-0.4-11.2-1.8-13.7-4c-2.5-2.3-3.8-6.1-3.8-11.4c0-3.4,0.4-6.1,1.2-8.2
				s2.2-3.8,4-5.1c1.4-1,3.5-1.8,6.1-2.2C15.1,0.2,19.7,0,26.2,0h2.5C36,0,41.2,0.3,44.2,0.9s5.5,1.6,7.5,3c1.4,0.9,2.4,2.3,3.1,4
				s1,3.9,1,6.5c0,0.8,0,1.3,0,1.7c0,0.4,0,0.8-0.1,1.1h-8v-1.4c0-2.1-0.2-3.8-0.5-4.9s-0.8-2-1.5-2.5c-1-0.8-2.8-1.4-5.3-1.7
				C37.9,6.4,33,6.2,25.9,6.2c-7.4,0-12,0.7-13.9,2c-1.9,1.4-2.8,4.1-2.8,8.1c0,3.3,0.6,5.6,1.8,6.9s3.6,2,7.1,2.2l22.5,1.5
				c5.9,0.4,10,1.7,12.4,4c2.4,2.2,3.6,5.9,3.6,11.2c0,3.8-0.3,6.7-0.9,8.6s-1.6,3.5-3,4.8c-1.7,1.6-4.1,2.7-7,3.3s-8.3,1-16,1h-3.6
				c-6.6,0-11.3-0.3-14-0.8s-5-1.5-6.8-2.9c-1.8-1.3-3.1-2.9-4-5.1C0.5,48.9,0,46.2,0,42.9v-3.1H0.3z"/>
		</g>
		<g>
			<path class="st1" d="M48.6,58.7V0.5h50.2v6.2H56.5v19h41.1v5.9H56.5v20.9h42.3v6.1H48.6V58.7z"/>
		</g>
		<path class="st2" d="M105.5,14.2V1.1h7.8c2,0,3.4,0.3,4.2,1s1.2,1.8,1.2,3.4v4.3c0,1.6-0.4,2.8-1.2,3.4c-0.8,0.7-2.2,1-4.2,1
			L105.5,14.2L105.5,14.2z M107.3,12.9h5.7c1.5,0,2.6-0.2,3.1-0.6s0.8-1.2,0.8-2.4V5.7c0-1.3-0.3-2.1-0.8-2.5s-1.6-0.6-3.1-0.6h-5.7
			V12.9z"/>
		<path class="st2" d="M124.8,14.2V1.1h11.3v1.4h-9.5v4.3h9.2v1.3h-9.2v4.7h9.5v1.4L124.8,14.2L124.8,14.2z"/>
		<path class="st2" d="M141.2,9.9h1.8v0.2c0,0.8,0.1,1.4,0.2,1.7c0.1,0.4,0.4,0.6,0.7,0.8c0.3,0.1,0.7,0.2,1.2,0.3
			c0.5,0,1.7,0.1,3.3,0.1c0.9,0,1.6,0,2.1-0.1s0.9-0.3,1.1-0.5c0.1-0.1,0.2-0.3,0.3-0.6s0.1-0.7,0.1-1.1c0-1-0.1-1.6-0.4-1.8
			c-0.2-0.2-0.7-0.4-1.4-0.4l-5-0.3c-1.5-0.1-2.5-0.4-3.1-0.9s-0.9-1.4-0.9-2.6c0-0.8,0.1-1.4,0.3-1.8c0.2-0.5,0.5-0.8,0.9-1.2
			c0.3-0.2,0.8-0.4,1.4-0.5c0.6-0.1,1.6-0.1,3.1-0.1h0.6c1.7,0,2.8,0.1,3.5,0.2c0.7,0.1,1.2,0.4,1.7,0.7c0.3,0.2,0.5,0.5,0.7,0.9
			c0.1,0.4,0.2,0.9,0.2,1.5c0,0.2,0,0.3,0,0.4s0,0.2,0,0.2h-1.8V4.7c0-0.5,0-0.8-0.1-1.1c-0.1-0.3-0.2-0.4-0.3-0.6
			c-0.2-0.2-0.6-0.3-1.2-0.4s-1.7-0.1-3.3-0.1c-1.7,0-2.7,0.2-3.1,0.5s-0.6,0.9-0.6,1.8c0,0.8,0.1,1.3,0.4,1.6
			c0.3,0.3,0.8,0.5,1.6,0.5l5.1,0.3c1.3,0.1,2.3,0.4,2.8,0.9s0.8,1.3,0.8,2.5c0,0.9-0.1,1.5-0.2,1.9s-0.4,0.8-0.7,1.1
			c-0.4,0.4-0.9,0.6-1.6,0.8s-1.9,0.2-3.6,0.2h-0.7c-1.5,0-2.5-0.1-3.2-0.2c-0.6-0.1-1.1-0.3-1.5-0.6c-0.4-0.3-0.7-0.7-0.9-1.1
			c-0.2-0.5-0.3-1.1-0.3-1.8V9.9z"/>
		<path class="st2" d="M160.2,14.2V1.1h1.8v13.1H160.2z"/>
		<path class="st2" d="M168,5.4c0-1.7,0.4-2.8,1.3-3.5s2.4-1,4.5-1h2c2,0,3.4,0.3,4.4,0.8c0.9,0.5,1.4,1.4,1.4,2.6v0.6h-1.8V4.7
			c0-0.9-0.3-1.5-0.8-1.9c-0.6-0.4-1.6-0.5-3.2-0.5h-1.4c-1.1,0-1.9,0-2.4,0.1s-0.9,0.3-1.2,0.5c-0.3,0.2-0.5,0.5-0.7,0.9
			c-0.1,0.4-0.2,1-0.2,2v3.7c0,0.9,0.1,1.6,0.2,2s0.3,0.7,0.7,0.9c0.3,0.2,0.7,0.4,1.2,0.5s1.3,0.1,2.4,0.1h1.4c1,0,1.7,0,2.2-0.1
			c0.4-0.1,0.8-0.2,1.1-0.4c0.3-0.2,0.5-0.5,0.6-0.8s0.2-0.9,0.2-1.8V9.1h-4.5V7.7h6.3v2.2c0,1.7-0.4,2.8-1.3,3.5s-2.4,1-4.5,1h-2
			c-2.2,0-3.7-0.3-4.5-1c-0.9-0.7-1.3-1.8-1.3-3.5L168,5.4L168,5.4z"/>
		<path class="st2" d="M187.6,14.2V1.1h2.7l8.7,11.7V1.1h1.8v13.1h-2.7l-8.7-11.7v11.7H187.6z"/>
		<path class="st2" d="M217.7,14.2V1.1h1.8v13.1H217.7z"/>
		<path class="st2" d="M226.1,14.2V1.1h2.7l8.7,11.7V1.1h1.8v13.1h-2.7l-8.7-11.7v11.7H226.1z"/>
		<path class="st2" d="M243.7,2.5V1.1h12.1v1.4h-5.1v11.7h-1.8V2.5H243.7z"/>
		<path class="st2" d="M260.2,14.2V1.1h11.3v1.4H262v4.3h9.2v1.3H262v4.7h9.5v1.4L260.2,14.2L260.2,14.2z"/>
		<path class="st2" d="M277.1,14.2V1.1h7.3c1.8,0,3.1,0.2,3.7,0.7c0.7,0.4,1,1.2,1,2.3v2c0,0.7-0.2,1.2-0.5,1.6s-0.9,0.6-1.6,0.7
			c0.8,0.1,1.3,0.4,1.6,0.8c0.3,0.4,0.5,1,0.5,1.8v3.1h-1.9v-2.7c0-0.9-0.2-1.6-0.5-1.9c-0.4-0.3-1.1-0.5-2.1-0.5h-5.7v5.1h-1.8
			V14.2z M284,2.5h-5.1v5.2h5.1c1.3,0,2.2-0.1,2.6-0.4s0.6-0.8,0.6-1.5V4.3c0-0.7-0.2-1.2-0.6-1.5S285.4,2.5,284,2.5z"/>
		<path class="st2" d="M295.3,14.2V1.1h1.8v13.1H295.3z"/>
		<path class="st2" d="M303.2,5.4c0-1.7,0.4-2.8,1.3-3.5s2.4-1,4.5-1h2c2.2,0,3.7,0.3,4.5,1s1.3,1.8,1.3,3.5v4.4
			c0,1.7-0.4,2.8-1.3,3.5s-2.4,1-4.5,1h-2c-2.2,0-3.7-0.3-4.5-1c-0.9-0.7-1.3-1.8-1.3-3.5V5.4z M310.5,2.3h-1c-1.1,0-1.9,0-2.4,0.1
			s-0.9,0.3-1.2,0.5c-0.3,0.2-0.5,0.5-0.7,0.9s-0.2,1-0.2,1.9v3.7c0,0.9,0.1,1.6,0.2,1.9c0.1,0.4,0.4,0.7,0.7,0.9
			c0.3,0.2,0.7,0.4,1.2,0.5s1.3,0.1,2.4,0.1h1c1.1,0,1.9,0,2.4-0.1s0.9-0.3,1.2-0.5c0.3-0.2,0.5-0.5,0.7-0.9c0.1-0.4,0.2-1,0.2-2
			V5.6c0-0.9-0.1-1.6-0.2-1.9s-0.4-0.7-0.7-0.9c-0.3-0.2-0.7-0.4-1.2-0.5C312.4,2.3,311.6,2.3,310.5,2.3z"/>
		<path class="st2" d="M322.9,14.2V1.1h7.3c1.8,0,3.1,0.2,3.7,0.7c0.7,0.4,1,1.2,1,2.3v2c0,0.7-0.2,1.2-0.5,1.6s-0.9,0.6-1.6,0.7
			c0.8,0.1,1.3,0.4,1.6,0.8c0.3,0.4,0.5,1,0.5,1.8v3.1h-1.8v-2.7c0-0.9-0.2-1.6-0.5-1.9c-0.4-0.3-1.1-0.5-2.1-0.5h-5.7v5.1h-1.9
			V14.2z M329.8,2.5h-5.1v5.2h5.1c1.3,0,2.2-0.1,2.6-0.4s0.6-0.8,0.6-1.5V4.3c0-0.7-0.2-1.2-0.6-1.5C332.1,2.6,331.2,2.5,329.8,2.5z
			"/>
		<path class="st2" d="M349.6,14.2l5.9-13.1h2.9l6,13.1h-1.8l-1.5-3.3H353l-1.5,3.3H349.6z M353.6,9.5h7l-3.2-7.1h-0.6L353.6,9.5z"
			/>
		<path class="st2" d="M369.4,14.2V1.1h7.3c1.8,0,3.1,0.2,3.7,0.7c0.7,0.4,1,1.2,1,2.3v2c0,0.7-0.2,1.2-0.5,1.6s-0.9,0.6-1.6,0.7
			c0.8,0.1,1.3,0.4,1.6,0.8c0.3,0.4,0.5,1,0.5,1.8v3.1h-1.9v-2.7c0-0.9-0.2-1.6-0.5-1.9c-0.4-0.3-1.1-0.5-2.1-0.5h-5.8v5.1h-1.7
			V14.2z M376.3,2.5h-5.2v5.2h5.1c1.3,0,2.2-0.1,2.6-0.4s0.6-0.8,0.6-1.5V4.3c0-0.7-0.2-1.2-0.6-1.5S377.7,2.5,376.3,2.5z"/>
		<path class="st2" d="M387.1,5.4c0-1.7,0.4-2.8,1.2-3.5c0.8-0.7,2.2-1,4.2-1h1.9c2,0,3.4,0.3,4.2,0.8c0.8,0.6,1.2,1.5,1.2,2.9v0.6
			H398V4.8c0-1-0.2-1.7-0.7-2c-0.5-0.4-1.5-0.5-2.9-0.5h-1.2c-1,0-1.7,0-2.1,0.1s-0.8,0.3-1.1,0.5c-0.3,0.2-0.5,0.5-0.6,0.9
			s-0.2,1-0.2,2v3.7c0,0.9,0.1,1.6,0.2,2s0.3,0.7,0.6,0.9c0.3,0.2,0.7,0.4,1.1,0.5s1.1,0.1,2.2,0.1h1.2c1.5,0,2.5-0.2,3-0.6
			s0.7-1.1,0.7-2.2c0-0.2,0-0.3,0-0.4s0-0.2,0-0.2h1.8v0.9c0,1.5-0.4,2.5-1.2,3c-0.8,0.6-2.2,0.9-4.2,0.9h-1.9c-2,0-3.4-0.3-4.2-1
			c-0.8-0.7-1.2-1.8-1.2-3.5V5.4H387.1z"/>
		<path class="st2" d="M405.4,14.2V1.1h1.8v5.7h9.3V1.1h1.8v13.1h-1.8V8.1h-9.3v6.1H405.4z"/>
		<path class="st2" d="M424.9,14.2V1.1h1.8v13.1H424.9z"/>
		<path class="st2" d="M431.1,2.5V1.1h12v1.4H438v11.7h-1.8V2.5H431.1z"/>
		<path class="st2" d="M447.6,14.2V1.1h11.3v1.4h-9.5v4.3h9.2v1.3h-9.2v4.7h9.5v1.4L447.6,14.2L447.6,14.2z"/>
		<path class="st2" d="M463.9,5.4c0-1.7,0.4-2.8,1.2-3.5c0.8-0.7,2.2-1,4.2-1h1.9c2,0,3.4,0.3,4.2,0.8c0.8,0.6,1.2,1.5,1.2,2.9v0.6
			h-1.8V4.8c0-1-0.2-1.7-0.7-2c-0.5-0.4-1.5-0.5-2.9-0.5H470c-1,0-1.7,0-2.1,0.1s-0.8,0.3-1.1,0.5c-0.3,0.2-0.5,0.5-0.6,0.9
			s-0.2,1-0.2,2v3.7c0,0.9,0.1,1.6,0.2,2s0.3,0.7,0.6,0.9c0.3,0.2,0.7,0.4,1.1,0.5s1.1,0.1,2.2,0.1h1.2c1.5,0,2.5-0.2,3-0.6
			s0.7-1.1,0.7-2.2c0-0.2,0-0.3,0-0.4s0-0.2,0-0.2h1.8v0.9c0,1.5-0.4,2.5-1.2,3c-0.8,0.6-2.2,0.9-4.2,0.9h-1.9c-2,0-3.4-0.3-4.2-1
			c-0.8-0.7-1.2-1.8-1.2-3.5V5.4H463.9z"/>
		<path class="st2" d="M480.1,2.5V1.1h12v1.4H487v11.7h-1.8V2.5H480.1z"/>
		<path class="st2" d="M496.4,1.1h1.8v8.6c0,0.8,0.1,1.4,0.2,1.8c0.1,0.3,0.3,0.6,0.6,0.8c0.3,0.2,0.6,0.4,1,0.4
			c0.4,0.1,1.1,0.1,2.1,0.1h1.7c1,0,1.7,0,2.1-0.1c0.4-0.1,0.7-0.2,1-0.4c0.3-0.2,0.5-0.5,0.6-0.8s0.2-0.9,0.2-1.8V1.1h1.8v8.8
			c0,1.7-0.4,2.8-1.2,3.5s-2.2,1-4.3,1h-1.9c-2.1,0-3.5-0.3-4.3-1s-1.2-1.8-1.2-3.5V1.1H496.4z"/>
		<path class="st2" d="M515.8,14.2V1.1h7.3c1.8,0,3.1,0.2,3.7,0.7c0.7,0.4,1,1.2,1,2.3v2c0,0.7-0.2,1.2-0.5,1.6s-0.9,0.6-1.6,0.7
			c0.8,0.1,1.3,0.4,1.6,0.8s0.5,1,0.5,1.8v3.1h-1.9v-2.7c0-0.9-0.2-1.6-0.5-1.9C525,9.2,524.3,9,523.3,9h-5.7v5.1h-1.8V14.2z
			 M522.7,2.5h-5.1v5.2h5.1c1.3,0,2.2-0.1,2.6-0.4c0.4-0.3,0.6-0.8,0.6-1.5V4.3c0-0.7-0.2-1.2-0.6-1.5C525,2.6,524.1,2.5,522.7,2.5z
			"/>
		<path class="st2" d="M534,14.2V1.1h11.3v1.4h-9.5v4.3h9.2v1.3h-9.2v4.7h9.5v1.4L534,14.2L534,14.2z"/>
		<line class="st3" x1="105.3" y1="21.3" x2="545.9" y2="21.3"/>
		<circle class="st1" cx="209.8" cy="7.8" r="2.3"/>
		<circle class="st1" cx="343.8" cy="7.8" r="2.3"/>
	</g>
</g>
</svg>
